<?xml version="1.0" encoding="UTF-8"?>
<svg version="1.1" xmlns="http://www.w3.org/2000/svg" width="1024" height="1024">
<path d="M0 0 C337.92 0 675.84 0 1024 0 C1024 337.92 1024 675.84 1024 1024 C686.08 1024 348.16 1024 0 1024 C0 686.08 0 348.16 0 0 Z " fill="#F6F6F6" transform="translate(0,0)"/>
<path d="M0 0 C18.91766195 16.44891412 33.47657699 39.8947422 35.39453125 65.37548828 C36.75570289 94.34413763 28.48653836 119.70284214 9.21484375 141.46875 C6.14029127 144.78059671 2.87165351 147.99388506 -0.8125 150.625 C-1.4725 150.625 -2.1325 150.625 -2.8125 150.625 C-2.8125 151.285 -2.8125 151.945 -2.8125 152.625 C-1.34490234 152.76228516 -1.34490234 152.76228516 0.15234375 152.90234375 C4.70335478 153.55934384 8.5951729 155.27897456 12.75 157.1875 C13.53648926 157.54465088 14.32297852 157.90180176 15.13330078 158.26977539 C51.22643511 174.94136601 77.70812928 203.56276158 91.765625 240.66821289 C102.1875 269.18723958 102.1875 269.18723958 102.1875 279.625 C103.39986328 279.20927734 103.39986328 279.20927734 104.63671875 278.78515625 C105.70535156 278.42292969 106.77398437 278.06070312 107.875 277.6875 C108.93074219 277.32785156 109.98648437 276.96820313 111.07421875 276.59765625 C125.99069563 271.93742696 143.62260799 273.43664791 158.1875 278.625 C159.1775 278.955 160.1675 279.285 161.1875 279.625 C161.249375 278.366875 161.31125 277.10875 161.375 275.8125 C165.29339362 238.11119919 186.24250233 202.79600224 214.22265625 178.02734375 C228.91428448 166.12306001 245.40242926 157.79485371 263.1875 151.625 C260.78247048 149.19868704 258.37221985 146.79574944 255.86328125 144.4765625 C237.92858975 127.57941513 228.05745587 103.97882491 226.94921875 79.41796875 C226.25579688 50.64408482 237.0416227 25.39075545 256.875 4.5625 C274.68186948 -12.78149978 298.65567405 -21.79390709 323.35766602 -21.60717773 C350.75350617 -21.0387519 373.56019276 -10.67070852 392.9296875 8.3125 C411.12015083 27.33231576 419.73949976 52.36764169 419.3984375 78.31640625 C418.63060499 104.59808087 406.90627161 128.85749266 387.9765625 146.94140625 C387.38617187 147.49699219 386.79578125 148.05257812 386.1875 148.625 C384.85065329 149.95481067 383.51643535 151.28728314 382.1875 152.625 C383.44433594 152.7796875 383.44433594 152.7796875 384.7265625 152.9375 C388.58845716 153.70464838 391.98881012 155.02754823 395.5625 156.625 C396.2544043 156.93260254 396.94630859 157.24020508 397.65917969 157.55712891 C432.89059377 173.56489522 461.12584557 201.49311915 475.265625 237.79296875 C478.76063977 247.23147311 481.49123223 256.69369903 483.1875 266.625 C483.45500816 268.17531921 483.45500816 268.17531921 483.72792053 269.75695801 C485.68583667 283.03870092 485.53430991 296.37031998 485.55494571 309.76925087 C485.55862821 311.86334387 485.56488713 313.95741423 485.5719471 316.05149841 C485.59630688 323.39029968 485.60946656 330.72903149 485.61303711 338.06787109 C485.61667437 344.85726399 485.646618 351.64620555 485.68844169 358.43546057 C485.72334563 364.31200837 485.73858889 370.1884077 485.73928314 376.06505823 C485.74006836 379.55425947 485.74845425 383.04299732 485.77728081 386.53208923 C485.95587265 409.55630718 484.04893593 427.82383591 467.6640625 445.3046875 C455.66559288 456.54615588 440.04041743 461.77269806 423.8359375 461.66796875 C422.58731934 461.66176514 421.33870117 461.65556152 420.05224609 461.64916992 C419.10687988 461.64119385 418.16151367 461.63321777 417.1875 461.625 C417.19303076 462.95987977 417.19303076 462.95987977 417.19867325 464.3217268 C417.28716451 486.01542794 417.35327774 507.70909781 417.39474869 529.4029417 C417.41533885 539.89410081 417.44339142 550.38513914 417.48925781 560.8762207 C417.52923439 570.0245088 417.55495857 579.17270939 417.56385398 588.32108241 C417.56905045 593.16123946 417.58118956 598.00114624 417.61042023 602.84122276 C417.63776061 607.40569002 417.64590772 611.96980616 417.63993073 616.53434753 C417.64102269 618.2011284 417.64886495 619.86792217 417.6643219 621.53463173 C417.81465997 638.59589995 414.00426013 653.5786919 402.0625 666.375 C390.46234844 677.15355567 377.29865542 682.51240028 361.5625 683.125 C348.56361806 682.64177019 336.40837456 678.05230859 327.1875 668.8125 C326.65125 668.22855469 326.115 667.64460937 325.5625 667.04296875 C324.22250136 665.50467412 324.22250136 665.50467412 322.1875 664.625 C321.84912109 665.49125 321.84912109 665.49125 321.50390625 666.375 C316.98945928 674.0910874 306.0400424 679.06312519 297.640625 681.3046875 C282.16775109 684.56919558 267.65371131 682.47115104 254.125 674.25 C240.58016901 664.81518499 233.1119582 651.49330165 229.61903763 635.48581123 C228.69749519 629.37658972 228.92921295 623.17194272 228.96044922 617.00756836 C228.96101418 615.43975837 228.96069512 613.87194786 228.95956421 612.30413818 C228.95899299 608.07128807 228.9707097 603.83855249 228.98471212 599.60572886 C228.99725818 595.17348364 228.99839303 590.74123546 229.00076294 586.30897522 C229.00696635 577.92629031 229.0233617 569.54365788 229.04346192 561.16099602 C229.06585644 551.61321335 229.07682327 542.06542811 229.08685279 532.51762569 C229.10772898 512.88672122 229.14288272 493.25586393 229.1875 473.625 C228.51203125 473.8415625 227.8365625 474.058125 227.140625 474.28125 C225.80257812 474.69890625 225.80257812 474.69890625 224.4375 475.125 C223.11492187 475.54265625 223.11492187 475.54265625 221.765625 475.96875 C219.1875 476.625 219.1875 476.625 215.1875 476.625 C215.19026538 477.45915058 215.19303076 478.29330116 215.19587994 479.15272903 C215.26224497 499.48582645 215.31183169 519.81890509 215.34293652 540.15208817 C215.35837988 549.98522084 215.37942085 559.81828104 215.41381836 569.65136719 C215.44379837 578.22575645 215.46309338 586.8000932 215.46976548 595.37453341 C215.47366321 599.91112443 215.48277024 604.44756527 215.50469017 608.98410797 C215.52519148 613.26208443 215.53130649 617.53985017 215.52682304 621.81787109 C215.52764218 623.38024799 215.53352607 624.94263261 215.54511642 626.50496674 C215.66542929 643.5730822 212.4146805 657.81700053 200.453125 670.5546875 C189.30562089 680.74119988 176.71911972 684.05440326 161.91796875 683.8984375 C150.20605921 683.03997293 140.27271242 678.09644868 132.1875 669.625 C129.06056875 671.03806513 126.72471176 672.77445236 124.125 675 C113.46347619 683.44477133 100.35483182 684.5366847 87.1875 683.625 C74.10594191 681.18780736 62.91002602 674.52440763 55.1875 663.625 C47.8431381 651.37349206 46.89280348 640.31577579 46.96044922 626.36499023 C46.96101412 624.72821561 46.96069524 623.09144047 46.95956421 621.45466614 C46.95899276 617.03380752 46.97071323 612.61305848 46.98471212 608.19222522 C46.99725432 603.56378921 46.99839273 598.93535041 47.00076294 594.30690002 C47.00696748 585.55234853 47.02336437 576.79784727 47.04346192 568.04331785 C47.06585291 558.07232647 47.07682239 548.10133262 47.08685279 538.13032234 C47.10773153 517.62852024 47.14288749 497.12676329 47.1875 476.625 C46.52363281 476.49222656 45.85976563 476.35945313 45.17578125 476.22265625 C40.84635417 475.35677083 36.51692708 474.49088542 32.1875 473.625 C32.19026538 474.44976491 32.19303076 475.27452982 32.19587994 476.12428761 C32.26222868 496.22336835 32.31182379 516.32243014 32.34293652 536.42159748 C32.35838358 546.14153802 32.37943169 555.86140531 32.41381836 565.58129883 C32.44378697 574.05642901 32.46309069 582.53150612 32.46976548 591.00668782 C32.47366513 595.4912687 32.48278453 599.9756978 32.50469017 604.46022987 C32.52517339 608.68813656 32.53131007 612.91583007 32.52682304 617.14378166 C32.52764298 618.6888406 32.53353779 620.23390726 32.54511642 621.77892303 C32.66838946 639.08878955 28.63510872 653.65410779 16.56616211 666.45874023 C6.16485282 676.93326135 -7.4031492 682.55021372 -22.125 683 C-36.39451208 682.8652407 -48.73187824 677.6669584 -58.9375 667.6875 C-59.55625 667.006875 -60.175 666.32625 -60.8125 665.625 C-63.85896779 666.98789349 -65.93004013 668.55523645 -68.3125 670.875 C-78.77348108 680.223526 -90.36554253 683.10087788 -104.00390625 682.87109375 C-118.73004322 681.91955875 -131.9029492 675.56500669 -141.8125 664.625 C-149.7973078 654.00413281 -155.07228333 642.43419903 -155.05300903 629.01928711 C-155.05471788 628.29783005 -155.05642673 627.57637299 -155.05818737 626.83305359 C-155.06145575 624.43937938 -155.05052285 622.0459917 -155.03955078 619.65234375 C-155.03898609 617.9270478 -155.03930435 616.20175136 -155.04043579 614.47645569 C-155.04100805 609.80968042 -155.02927424 605.14300861 -155.01528788 600.47625732 C-155.0027594 595.59290089 -155.00160835 590.7095419 -154.99923706 585.82617188 C-154.99302851 576.58638963 -154.97662615 567.34665489 -154.95653808 558.10689354 C-154.93415963 547.58454487 -154.92318076 537.0621939 -154.91314721 526.53982735 C-154.89225937 504.90152508 -154.85709555 483.26326554 -154.8125 461.625 C-155.84301483 461.6322963 -156.87352966 461.63959259 -157.93527222 461.64710999 C-159.30043466 461.65301105 -160.66559789 461.65873388 -162.03076172 461.66430664 C-162.70842087 461.66957619 -163.38608002 461.67484573 -164.08427429 461.68027496 C-180.67876563 461.73106219 -195.49104847 454.72340533 -207.37109375 443.29296875 C-220.22524619 429.24595096 -223.12740577 412.14262635 -223.0871582 393.70654297 C-223.09226913 392.47549332 -223.09738007 391.24444366 -223.10264587 389.97608948 C-223.11407421 386.63470621 -223.11662967 383.293573 -223.11408257 379.95218801 C-223.11300268 377.14236732 -223.11792236 374.33256876 -223.122688 371.52275288 C-223.13373759 364.87973464 -223.13424747 358.23677296 -223.12817383 351.59375 C-223.1221486 344.79096288 -223.13441852 337.98838336 -223.1557439 331.18563163 C-223.17349377 325.30234128 -223.1793401 319.41911617 -223.17610615 313.5358001 C-223.17431304 310.04101984 -223.17672721 306.5463874 -223.19082069 303.05163193 C-223.25875401 284.64619695 -222.64705157 267.17479803 -217.0625 249.5 C-216.80791016 248.67508057 -216.55332031 247.85016113 -216.29101562 247.00024414 C-208.91691825 223.82227767 -196.70710948 204.00162401 -179.8125 186.625 C-179.01005859 185.78316162 -179.01005859 185.78316162 -178.19140625 184.92431641 C-174.15152212 180.76046061 -169.93415304 177.20575449 -165.1875 173.875 C-164.46530273 173.36767334 -163.74310547 172.86034668 -162.99902344 172.33764648 C-150.95781467 164.10046944 -137.78559318 157.26683017 -124.015625 152.4296875 C-121.867521 151.82055289 -121.867521 151.82055289 -120.8125 150.625 C-121.55693359 149.98884766 -121.55693359 149.98884766 -122.31640625 149.33984375 C-124.49988498 147.45467711 -126.65794238 145.54312829 -128.8125 143.625 C-129.38613281 143.13128906 -129.95976562 142.63757813 -130.55078125 142.12890625 C-147.02455449 126.99190697 -156.1433267 103.26445456 -157.19140625 81.30078125 C-157.9774316 52.66102788 -149.53354382 27.88157548 -129.8125 6.625 C-95.24009924 -27.79215337 -37.70410756 -31.5291458 0 0 Z " fill="#020202" transform="translate(380.8125,174.375)"/>
<path d="M0 0 C2.48896369 2.2082535 4.92515454 4.46145009 7.34765625 6.7421875 C7.96253906 7.29261719 8.57742188 7.84304688 9.2109375 8.41015625 C31.1939089 28.87706066 41.94351955 65.2566149 44.58203125 94.32421875 C44.28979767 97.33909522 43.5002444 98.09917261 41.34765625 100.1796875 C26.9373013 115.78604357 22.37091834 136.64167001 23.17285156 157.32519531 C23.92714977 167.75473764 28.07469275 176.93426166 32.95703125 186.01171875 C34.34765625 188.7421875 34.34765625 188.7421875 34.34765625 190.7421875 C23.78765625 190.7421875 13.22765625 190.7421875 2.34765625 190.7421875 C2.32578247 185.82856323 2.32578247 185.82856323 2.3034668 180.81567383 C2.25315527 169.9989347 2.18656621 159.18234005 2.11194134 148.36574268 C2.06719239 141.80691058 2.02794606 135.24814125 2.0012207 128.68920898 C1.97523316 122.36081351 1.93486257 116.03265902 1.88446999 109.70441246 C1.86777055 107.28870323 1.85627549 104.87295229 1.85004234 102.45719337 C1.84043498 99.07642918 1.81241487 95.6962858 1.7800293 92.31567383 C1.78146439 91.31441971 1.78289948 90.31316559 1.78437805 89.28157043 C1.71550042 84.20553794 1.49780817 80.94279253 -1.65234375 76.7421875 C-1.65234375 76.0821875 -1.65234375 75.4221875 -1.65234375 74.7421875 C-6.54984626 72.37242822 -12.33694214 70.7284397 -17.68359375 72.36328125 C-22.16859059 74.65329023 -23.90872138 77.14669617 -25.65234375 81.7421875 C-26.08903041 85.27520436 -26.08988132 88.7807316 -26.0847168 92.33740234 C-26.09490845 93.39166412 -26.1051001 94.4459259 -26.11560059 95.53213501 C-26.14571852 99.00585249 -26.15499496 102.47929413 -26.1640625 105.953125 C-26.18091002 108.36594559 -26.19906036 110.77875741 -26.21846008 113.19155884 C-26.26595794 119.5339687 -26.29576892 125.87634298 -26.32189941 132.21887207 C-26.35170583 138.69416326 -26.39823595 145.16933189 -26.44335938 151.64453125 C-26.52939019 164.34368335 -26.59730475 177.0428652 -26.65234375 189.7421875 C-27.27984024 189.76364334 -27.90733673 189.78509918 -28.55384827 189.8072052 C-31.43204429 189.90975934 -34.309718 190.02315963 -37.1875 190.13671875 C-38.17447876 190.17027466 -39.16145752 190.20383057 -40.17834473 190.23840332 C-50.0060099 190.64099222 -59.91410713 191.83538976 -67.2890625 199.02734375 C-73.68757101 207.07589744 -74.41267618 215.75077679 -73.65234375 225.7421875 C-71.1130335 236.37826985 -64.59679223 243.75614908 -55.77734375 249.85546875 C-47.64306518 254.76653943 -38.87628177 257.98021703 -29.6640625 260.19921875 C-27.65234375 260.7421875 -27.65234375 260.7421875 -26.65234375 261.7421875 C-26.54885065 263.8607426 -26.51710972 265.98280678 -26.51190186 268.10388184 C-26.50893073 268.77625586 -26.50595961 269.44862988 -26.50289845 270.14137888 C-26.49417523 272.41132223 -26.49270013 274.68121306 -26.49121094 276.95117188 C-26.48658506 278.57216506 -26.48156071 280.19315714 -26.47616577 281.81414795 C-26.46301141 286.23190709 -26.4565901 290.649651 -26.45215511 295.06742668 C-26.44922728 297.82789694 -26.44512287 300.58836302 -26.44065094 303.34883118 C-26.42696364 311.98632841 -26.41730489 320.62381612 -26.41344905 329.26132345 C-26.408975 339.22943262 -26.39146269 349.19740421 -26.36244845 359.16547155 C-26.34080502 366.86918082 -26.33074323 374.57285148 -26.32940793 382.27659082 C-26.32836115 386.87733395 -26.32248136 391.47794797 -26.30458832 396.07865906 C-26.28806321 400.41246513 -26.28597361 404.74604571 -26.29472733 409.07987213 C-26.29549552 410.66608027 -26.29118381 412.25230075 -26.28126907 413.83847809 C-26.21449863 425.1916756 -26.61941832 434.386551 -34.75 443.015625 C-40.48214105 448.21810209 -46.58796229 450.14954907 -54.21875 450.01171875 C-61.55131054 449.1996053 -66.41313337 445.57277721 -71.14453125 440.1328125 C-76.44414415 431.73031743 -76.07174449 423.31595037 -76.02124023 413.72265625 C-76.0237109 412.09900662 -76.02755199 410.47535858 -76.03265381 408.85171509 C-76.04096592 405.36720448 -76.04020635 401.88285745 -76.0324688 398.39834595 C-76.02084901 392.88422131 -76.03307873 387.37030547 -76.04908752 381.85620117 C-76.08521697 368.16297651 -76.09151195 354.46975728 -76.08898926 340.77648926 C-76.08727691 330.12725415 -76.09442564 319.4781905 -76.12896782 308.82900333 C-76.14573347 303.35171792 -76.14399204 297.87485131 -76.1281451 292.39756775 C-76.12233676 288.98608136 -76.13310832 285.57479242 -76.14839172 282.16334152 C-76.15210885 280.58638985 -76.14903624 279.00940466 -76.13852119 277.43248367 C-76.03775376 265.99435868 -76.03775376 265.99435868 -80.65234375 255.7421875 C-84.02049632 252.60902232 -86.64146434 251.48478942 -91.15234375 251.2421875 C-95.61561874 251.4600915 -98.2571863 252.75121546 -101.65234375 255.7421875 C-104.62711837 259.75826028 -105.02513237 262.65051847 -105.01742554 267.60267639 C-105.02054453 268.28043497 -105.02366353 268.95819355 -105.02687705 269.65649027 C-105.03380506 271.9210402 -105.01950419 274.18495396 -105.00537109 276.44946289 C-105.00620218 278.07603071 -105.00841924 279.70259833 -105.01191711 281.3291626 C-105.01686469 284.83009345 -105.01277274 288.33085672 -105.00190353 291.83177376 C-104.98552572 297.37615468 -104.99401764 302.92032604 -105.00674438 308.46470642 C-105.03684877 323.23706999 -105.03544887 338.00939625 -105.01649153 352.78177494 C-105.00413072 362.48392956 -105.00610105 372.18584632 -105.03487933 381.88797373 C-105.05005523 387.3901594 -105.04271504 392.89169712 -105.01816916 398.39384186 C-105.00803926 401.83177683 -105.01885564 405.26942026 -105.03528404 408.70732117 C-105.038712 410.2906591 -105.03374073 411.87404333 -105.01931572 413.45731926 C-104.93142719 423.74891652 -105.50253119 433.85790105 -112.62773705 441.99931431 C-117.98301558 447.08893432 -123.54167456 449.83558132 -130.96484375 450.2421875 C-137.88013632 450.01421082 -143.62785006 447.79172876 -148.5390625 442.83984375 C-152.99181254 437.22269418 -154.90212627 431.81607357 -154.90288353 424.60701942 C-154.90788223 423.39126846 -154.91288092 422.17551749 -154.9180311 420.92292559 C-154.91349108 419.58229364 -154.90877445 418.24166227 -154.90390015 416.90103149 C-154.90603947 415.47024743 -154.90906546 414.03946447 -154.91290057 412.60868394 C-154.92093626 408.68130698 -154.91663586 404.75402533 -154.91038179 400.82664871 C-154.90584732 396.58933545 -154.91288856 392.35204032 -154.91868591 388.11473083 C-154.92731859 380.77292862 -154.92912712 373.43115049 -154.92673874 366.08934402 C-154.92364159 355.46561125 -154.93527818 344.84193177 -154.95128854 334.21821241 C-154.97725193 316.9703495 -154.9972701 299.72248655 -155.01074219 282.47460938 C-155.01155256 281.44235754 -155.01236293 280.41010571 -155.01319785 279.34657352 C-155.02442008 264.6966177 -155.02970067 250.04666568 -155.03258498 235.39670615 C-155.03278897 234.3650607 -155.03299296 233.33341525 -155.03320312 232.27050781 C-155.03340306 231.24011991 -155.033603 230.20973201 -155.03380899 229.14812024 C-155.03754164 211.96715421 -155.05662466 194.78624598 -155.08829749 177.60530889 C-155.10721515 167.00858738 -155.11317168 156.41201406 -155.10248031 145.8152803 C-155.09616241 138.55421093 -155.10419834 131.29324784 -155.12353443 124.03220178 C-155.13421928 119.84283117 -155.13836309 115.65371865 -155.12506294 111.46434975 C-155.11300407 107.62745181 -155.11937586 103.79103759 -155.14025493 99.9541816 C-155.14455408 98.56795998 -155.14213006 97.18169734 -155.13221376 95.79550453 C-155.08056612 88.00898653 -155.36712432 82.36244905 -159.65234375 75.7421875 C-162.82080488 72.76575432 -165.55806956 71.84740617 -169.90234375 71.4296875 C-174.71935156 71.83110482 -176.71896425 72.9434367 -180.65234375 75.7421875 C-184.25829341 80.55012038 -184.77463108 84.79730945 -184.81056213 90.69000244 C-184.82524536 92.5157077 -184.82524536 92.5157077 -184.84022522 94.3782959 C-184.84612896 95.72387656 -184.85193943 97.06945763 -184.85766602 98.41503906 C-184.86724794 99.83433312 -184.8772582 101.25362435 -184.88766479 102.6729126 C-184.91468591 106.52377444 -184.93571058 110.3746485 -184.95566678 114.22555256 C-184.97754357 118.25079382 -185.00492398 122.27599754 -185.03172302 126.3012085 C-185.08162701 133.9225709 -185.12657435 141.54395416 -185.16974539 149.16535735 C-185.21913736 157.8424561 -185.27404822 166.51951716 -185.32942498 175.19657946 C-185.44320981 193.04508048 -185.55005647 210.89361707 -185.65234375 228.7421875 C-187.08591656 228.75427532 -188.51951902 228.76287728 -189.953125 228.77001953 C-190.75145752 228.77518585 -191.54979004 228.78035217 -192.37231445 228.78567505 C-202.51012617 228.59231412 -211.02654263 224.36798862 -218.08984375 217.3046875 C-221.35257459 211.95380892 -221.90669922 206.46354016 -221.97119141 200.30200195 C-221.98624285 199.23480643 -221.98624285 199.23480643 -222.00159836 198.14605141 C-222.03234732 195.79919821 -222.04946365 193.45245891 -222.06640625 191.10546875 C-222.08536137 189.44071042 -222.10512311 187.77596111 -222.12564087 186.11122131 C-222.17769017 181.67444415 -222.2175336 177.23764187 -222.25404358 172.80071259 C-222.28513292 169.1367006 -222.32183104 165.47275293 -222.35839081 161.80879211 C-222.4475847 152.84188264 -222.52370322 143.87491959 -222.59304047 134.90783691 C-222.64116831 128.80987252 -222.70722933 122.71231848 -222.7797699 116.61459351 C-223.24221135 76.46250274 -219.98763396 38.27330247 -190.97607422 7.5949707 C-142.97054602 -41.26293856 -51.86287264 -44.14836581 0 0 Z " fill="#F5F5F5" transform="translate(410.65234375,377.2578125)"/>
<path d="M0 0 C3.2815145 2.90529593 6.39579465 5.95859825 9.46875 9.08203125 C10.37496094 9.98953125 11.28117188 10.89703125 12.21484375 11.83203125 C32.06797837 32.62191956 41.62473557 61.53625503 41.61401367 89.8828125 C41.61905159 91.79868668 41.61905159 91.79868668 41.62419128 93.75326538 C41.63298674 97.24081779 41.63536744 100.72834562 41.63600707 104.21590805 C41.63671982 106.397817 41.63885835 108.57971978 41.64150429 110.7616272 C41.65074122 118.38177891 41.65484103 126.00191318 41.65405273 133.62207031 C41.65345159 140.71291759 41.66401483 147.80368889 41.6797964 154.89451694 C41.69288748 160.99493294 41.69823601 167.09532413 41.69759732 173.19575405 C41.69734291 176.83386857 41.7001634 180.47191541 41.71077538 184.11001587 C41.72228815 188.16714656 41.71769996 192.22410745 41.71166992 196.28125 C41.71728943 197.47938324 41.72290894 198.67751648 41.72869873 199.91195679 C41.69685487 208.34022098 41.28535772 215.0333319 35.36328125 221.4453125 C28.03948593 227.77246763 18.67598556 230.21140177 9.1875 230.125 C8.29998047 230.11879639 7.41246094 230.11259277 6.49804688 230.10620117 C5.82837891 230.0982251 5.15871094 230.09024902 4.46875 230.08203125 C4.46728344 229.33088515 4.46581688 228.57973906 4.46430588 227.80583096 C4.42723538 209.51892553 4.36821746 191.23221109 4.28484726 172.9454565 C4.24505766 164.10206236 4.21266478 155.25875718 4.19775391 146.4152832 C4.18473696 138.70625183 4.15777127 130.99741623 4.11413693 123.28849512 C4.09152297 119.20758643 4.07583927 115.12691921 4.07686615 111.04594231 C4.07761281 107.20200331 4.05966014 103.35859808 4.02758217 99.51479721 C4.01908803 98.10677463 4.01732999 96.69869214 4.02294731 95.29065514 C4.11908029 84.96159961 4.11908029 84.96159961 -0.53125 76.08203125 C-4.85971996 73.10019639 -8.33202929 72.44353046 -13.53125 73.08203125 C-17.23100324 74.50090569 -19.96238168 76.34250244 -22.40625 79.51953125 C-24.37384762 84.00128138 -24.65619285 88.19976208 -24.65594864 93.05733013 C-24.65953506 94.86566972 -24.65953506 94.86566972 -24.66319394 96.71054143 C-24.6608156 98.04487668 -24.6583556 99.37921179 -24.65582275 100.71354675 C-24.65680921 102.1337916 -24.65824651 103.55403619 -24.66009593 104.97428018 C-24.6631542 108.06219156 -24.66304792 111.1500814 -24.66053963 114.23799324 C-24.65647862 119.26244805 -24.65924975 124.28688601 -24.66288757 129.31134033 C-24.66697787 135.66094489 -24.6692172 142.01054568 -24.66930357 148.36015157 C-24.66950634 160.83983436 -24.6819685 173.31947831 -24.69891357 185.79914856 C-24.70151936 187.76409424 -24.70411817 189.72903994 -24.7067101 191.69398564 C-24.71064854 194.6719436 -24.71459507 197.64990156 -24.71857132 200.62785947 C-24.73351736 211.85517627 -24.74714186 223.08249426 -24.75927734 234.30981445 C-24.7603909 235.33612594 -24.76150447 236.36243742 -24.76265177 237.41984925 C-24.78022348 254.04792057 -24.78309607 270.67596754 -24.78142694 287.30404659 C-24.78014751 304.37878232 -24.79789328 321.45342751 -24.83244491 338.52812845 C-24.85308771 349.05800781 -24.85843771 359.58767028 -24.8441166 370.11756114 C-24.8356516 377.3361626 -24.84540458 384.55459555 -24.8694261 391.77316143 C-24.88272111 395.93649356 -24.88794312 400.09942142 -24.87130547 404.26275063 C-24.85622647 408.07830522 -24.86433967 411.8930993 -24.890475 415.70858768 C-24.89842248 417.73399629 -24.88189079 419.75945595 -24.86433244 421.78480405 C-24.95498881 430.40079571 -26.30425353 437.46211063 -32.27218747 443.98479909 C-37.17986494 448.59415174 -42.58213237 451.1805602 -49.34375 451.58203125 C-57.03143732 451.30162928 -63.18261615 447.86945559 -68.46875 442.39453125 C-75.89461111 434.16587434 -74.95472849 422.14247162 -74.90014648 411.80371094 C-74.9026184 410.17652127 -74.90646077 408.54933321 -74.91156006 406.92214966 C-74.91985753 403.43657853 -74.91912538 399.95117102 -74.91137505 396.46559906 C-74.89973925 390.95186373 -74.911997 385.43833663 -74.92799377 379.92462158 C-74.96409085 366.23723579 -74.97041491 352.54985586 -74.96789551 338.86242676 C-74.96618417 328.20798787 -74.97329146 317.5537203 -75.00787407 306.89932942 C-75.02465794 301.41981424 -75.02288344 295.94071751 -75.00705135 290.46120405 C-75.00125431 287.05418568 -75.01199364 283.64736587 -75.02729797 280.24038315 C-75.03102331 278.66258972 -75.02791865 277.08476291 -75.01742744 275.50699997 C-75.00404272 273.35025504 -75.01527524 271.19495626 -75.03245544 269.03826904 C-75.03224616 267.8326469 -75.03203688 266.62702477 -75.03182125 265.38486862 C-75.76765514 260.51862959 -78.01959833 257.37773268 -81.71875 254.20703125 C-86.60703403 252.25171764 -91.34115868 252.28563441 -96.28125 254.08203125 C-100.64772283 257.96334044 -103.19541623 261.56440219 -103.98536682 267.48638725 C-104.15180194 271.78588779 -104.15857408 276.05979806 -104.11132812 280.36108398 C-104.11159504 282.01266663 -104.11413253 283.66425023 -104.11875916 285.31582642 C-104.12414827 288.86103734 -104.11417015 292.40574903 -104.0922699 295.95089531 C-104.05830515 301.56194864 -104.06251073 307.17258285 -104.0723877 312.78370667 C-104.08935255 325.70765361 -104.05662257 338.63138456 -104.02346039 351.55528259 C-103.99357299 363.40159798 -103.97428072 375.24767924 -103.99512625 387.09402806 C-104.00350047 392.66651982 -103.98777734 398.23825592 -103.95333099 403.81064022 C-103.93683456 407.28335782 -103.94106153 410.75583152 -103.95077705 414.22856522 C-103.95103606 415.83253401 -103.94277997 417.43653157 -103.92513847 419.04040337 C-103.8226146 428.84207015 -104.29679754 436.48085642 -111.24138641 443.91197872 C-116.27017583 448.76090556 -122.01860922 451.14482801 -128.96875 451.51953125 C-135.74965815 451.23942489 -141.30826168 448.48597718 -146.34375 444.01953125 C-154.29423837 435.04268427 -154.09596392 423.94562601 -153.98535156 412.5949707 C-153.98422117 410.95790128 -153.98486068 409.32082984 -153.98712158 407.6837616 C-153.98826219 403.27114959 -153.96485961 398.85897871 -153.93682575 394.44646859 C-153.91170237 389.82340031 -153.90946152 385.20032023 -153.90472412 380.57719421 C-153.89232633 371.83680303 -153.85954828 363.09661363 -153.81932616 354.35631102 C-153.77450858 344.39980476 -153.75259637 334.44328851 -153.73254442 324.48670638 C-153.6908126 304.01836901 -153.62052313 283.55021288 -153.53125 263.08203125 C-152.28002896 262.6097052 -151.02850357 262.13818536 -149.77685547 261.66699219 C-149.07994598 261.40432556 -148.3830365 261.14165894 -147.66500854 260.87103271 C-145.65250907 260.1268693 -143.63166089 259.41713675 -141.6015625 258.72265625 C-128.72391156 254.23767018 -117.06219005 248.06978676 -110.18359375 235.6484375 C-106.4332007 227.46209568 -105.11115561 219.36218382 -107.53125 210.51953125 C-109.96768204 204.01853013 -114.75611565 198.87430552 -120.53125 195.14453125 C-128.10475306 192.46224892 -135.0438779 191.70860202 -143.03125 191.45703125 C-144.55105469 191.39902344 -144.55105469 191.39902344 -146.1015625 191.33984375 C-148.57795284 191.24639506 -151.05435151 191.16063252 -153.53125 191.08203125 C-153.53344984 190.25680544 -153.53344984 190.25680544 -153.53569412 189.41490841 C-153.57279439 176.00990682 -153.63210288 162.60516056 -153.71515274 149.20036221 C-153.75464762 142.71779307 -153.78682647 136.2353602 -153.80224609 129.75268555 C-153.81739907 123.49555284 -153.8518214 117.23879468 -153.89955902 110.98182869 C-153.91438667 108.59568603 -153.9222918 106.2094899 -153.92313385 103.82330132 C-153.92550097 100.47871935 -153.9525622 97.13517455 -153.98535156 93.79077148 C-153.9803212 92.80605865 -153.97529083 91.82134583 -153.97010803 90.80679321 C-154.06230248 84.72125873 -154.90576709 81.03138828 -158.53125 76.08203125 C-163.25913104 73.11551766 -167.0742852 72.64659476 -172.453125 73.515625 C-175.64558182 74.38574951 -177.33030591 75.62215256 -179.53125 78.08203125 C-182.70042776 83.9842962 -182.9734667 88.98105481 -182.96362305 95.60717773 C-182.9738147 96.6420784 -182.98400635 97.67697906 -182.99450684 98.74324036 C-183.02457823 102.14659073 -183.03389406 105.54965935 -183.04296875 108.953125 C-183.05981973 111.31967602 -183.07797053 113.68621811 -183.09736633 116.05274963 C-183.14482667 122.26855683 -183.1746619 128.48432782 -183.20080566 134.70025635 C-183.23063103 141.04829049 -183.27715464 147.39619996 -183.32226562 153.74414062 C-183.40825386 166.19005322 -183.4740753 178.6359529 -183.53125 191.08203125 C-198.87625 191.57703125 -198.87625 191.57703125 -214.53125 192.08203125 C-213.16831244 188.67468735 -211.77159877 185.53623975 -210.15625 182.26953125 C-202.06576984 164.26401161 -200.52853131 144.67941532 -207.53125 126.08203125 C-207.89347656 125.05851563 -208.25570312 124.035 -208.62890625 122.98046875 C-211.83784388 114.56108664 -216.38184519 106.18220583 -222.8359375 99.8046875 C-225.38594946 95.7093918 -224.45733575 92.55178426 -223.59375 87.95703125 C-223.44260742 87.07539307 -223.29146484 86.19375488 -223.13574219 85.28540039 C-218.39098306 58.83313244 -210.03129746 32.20590732 -191.53125 12.08203125 C-191.06235352 11.56543945 -190.59345703 11.04884766 -190.11035156 10.51660156 C-144.32364175 -39.41906577 -51.64678558 -43.84476276 0 0 Z " fill="#F5F5F5" transform="translate(793.53125,375.91796875)"/>
<path d="M0 0 C14.47420799 -0.11733659 28.94834113 -0.20489894 43.42292881 -0.25906086 C50.14531515 -0.2847302 56.86740422 -0.31966143 63.58959961 -0.37719727 C70.08652304 -0.43183967 76.58313895 -0.46148849 83.08027458 -0.47438622 C85.54920219 -0.4835684 88.01811449 -0.50149791 90.48690987 -0.52865028 C104.1278152 -0.67260163 115.3318399 -0.22126612 128 5 C142.93818719 8.54300373 161.32318256 7.13729086 175.39083385 0.94813728 C178.09385431 -0.03410544 180.03072235 -0.2468727 182.89118958 -0.24050903 C184.32769867 -0.24463303 184.32769867 -0.24463303 185.79322815 -0.24884033 C186.83188522 -0.24164978 187.8705423 -0.23445923 188.94067383 -0.22705078 C190.59499924 -0.22748886 190.59499924 -0.22748886 192.28274536 -0.22793579 C195.92425432 -0.22654365 199.56555808 -0.2109876 203.20703125 -0.1953125 C205.73337187 -0.19158197 208.25971394 -0.18873518 210.78605652 -0.18673706 C216.75352154 -0.1798838 222.72089863 -0.16412453 228.68832844 -0.14403808 C235.48395164 -0.12166181 242.2795784 -0.11068131 249.07522929 -0.10064721 C263.05019352 -0.07975777 277.02509273 -0.0445926 291 0 C288.96319863 4.36897316 286.64215631 6.95387369 282.02929688 8.78027344 C279.61789369 9.54926422 277.19608526 10.22465918 274.75 10.875 C273.83541016 11.12765625 272.92082031 11.3803125 271.97851562 11.640625 C264.85514767 13.57856483 257.68385916 15.30284593 250.5 17 C242.4460721 18.90415334 234.41703039 20.86498984 226.4375 23.0625 C225.59960938 23.28357422 224.76171875 23.50464844 223.8984375 23.73242188 C215.57205875 26.0814084 208.97723942 29.82691966 204 37 C202.1723754 41.49481399 201.74809787 45.2871732 201.74171448 50.12155151 C201.73803877 50.81523744 201.73436307 51.50892336 201.73057598 52.22363007 C201.72063826 54.53571868 201.72473828 56.84756477 201.72875977 59.15966797 C201.72437026 60.82243097 201.71906729 62.48519178 201.71292114 64.14794922 C201.70143734 67.72303486 201.69596291 71.29806135 201.69503975 74.87316513 C201.69309599 80.52992879 201.67502595 86.18657046 201.65428162 91.84329224 C201.60513492 105.8937851 201.57421881 119.94431105 201.55297852 133.99487305 C201.53644513 144.91521089 201.51360299 155.83544397 201.46995777 166.75571167 C201.44821186 172.37507813 201.44012072 177.99424541 201.44235051 183.61365104 C201.44068011 187.11471047 201.42660916 190.61564058 201.40913773 194.11665344 C201.40355323 195.73552126 201.40303913 197.35441606 201.40807533 198.97328568 C201.45783614 216.84770305 201.45783614 216.84770305 196.1328125 223.2421875 C190.67027186 227.68448709 186.60926919 230.57821114 179.25390625 230.3828125 C173.59685835 229.42199674 168.61798765 226.53708827 164.5 222.625 C161.10355578 216.68122261 160.71007242 210.81960376 160.74462891 204.16235352 C160.73919823 202.87799408 160.73919823 202.87799408 160.73365784 201.56768799 C160.7267951 199.71912764 160.72425251 197.87054716 160.72560501 196.02197456 C160.72657496 193.09124816 160.71357306 190.16088378 160.69662476 187.23020935 C160.65049104 178.90146657 160.62574802 170.57276278 160.61914062 162.24389648 C160.61411586 157.13931 160.58982081 152.03510425 160.55381393 146.9306469 C160.54404219 144.99189481 160.5416696 143.05309018 160.54698563 141.11432076 C160.55408553 138.39814879 160.5367154 135.68310635 160.51416016 132.96704102 C160.52233261 132.17458481 160.53050507 131.3821286 160.53892517 130.56565857 C160.44456083 124.14707263 158.56032478 118.93963215 154.3125 114.0625 C149.43261619 111.82039122 144.76828691 111.39944973 139.6875 113.125 C135.79315285 115.84198638 133.50471001 118.48586997 132 123 C131.89499677 125.82756547 131.84589467 128.63149609 131.84228516 131.45947266 C131.83720444 132.32327545 131.83212372 133.18707825 131.82688904 134.07705688 C131.81618426 135.95460622 131.8075645 137.83216832 131.80076981 139.70973587 C131.78897338 142.68655279 131.76951641 145.66322512 131.74765015 148.63998413 C131.68607419 157.10450386 131.63208047 165.56901014 131.59863281 174.03369141 C131.57762266 179.21144471 131.54226403 184.38893645 131.49787521 189.56653976 C131.48376039 191.53515914 131.47500303 193.50382482 131.47182083 195.47249222 C131.46688168 198.23665739 131.44364526 201.00013585 131.41650391 203.76416016 C131.42101311 204.97090393 131.42101311 204.97090393 131.4256134 206.20202637 C131.33154755 212.69167326 130.24972139 219.12668847 126.16796875 224.33984375 C119.99247331 229.32165368 115.1566573 231.71549625 107 231 C100.57903123 228.85967708 95.54716288 225.96633152 92.35217285 219.84066772 C89.99530933 213.09883694 90.58589517 205.78813776 90.61523438 198.73681641 C90.61112485 197.08685431 90.60566173 195.43689511 90.59895325 193.78694153 C90.58726121 190.24514817 90.58473213 186.70351051 90.58930969 183.1617012 C90.59614072 177.55460975 90.58021441 171.94772172 90.56091309 166.34066772 C90.52311047 154.43545606 90.51026814 142.53026247 90.5 130.625 C90.48891435 117.77731095 90.47348361 104.92971622 90.42928743 92.08209169 C90.41098882 86.51511303 90.40701819 80.94836845 90.41422272 75.38136697 C90.41575067 71.90972008 90.40492238 68.43818902 90.39084435 64.96657372 C90.38686105 63.36466472 90.38793342 61.76273336 90.39461708 60.16083336 C90.57310983 45.64135603 90.57310983 45.64135603 84.8125 32.625 C78.20921502 26.46193402 69.76716003 24.58062818 61.25 22.3125 C60.01241943 21.97508789 58.77483887 21.63767578 57.49975586 21.29003906 C50.12603134 19.29235875 42.7239716 17.42560569 35.30078125 15.62109375 C34.48952789 15.42280472 33.67827454 15.22451569 32.84243774 15.0202179 C28.85144313 14.04550254 24.85815623 13.0838741 20.85839844 12.14575195 C19.38596442 11.7903039 17.91362886 11.43444767 16.44140625 11.078125 C15.77691971 10.92729965 15.11243317 10.7764743 14.42781067 10.62107849 C8.79544724 9.23604146 3.72033845 6.54708032 0 2 C0 1.34 0 0.68 0 0 Z " fill="#F6F5F6" transform="translate(366,598)"/>
<path d="M0 0 C13.06621324 10.96916667 22.84615111 27.84980587 24.40332031 44.96630859 C25.56054157 63.46936075 21.23744342 81.28474803 9.16796875 95.7890625 C-3.1992253 109.42023831 -18.27825183 116.93034735 -36.71875 118.2109375 C-54.80380767 118.87428904 -71.96434614 113.78336515 -85.40625 101.4375 C-98.72492429 88.59761587 -106.47288137 72.07120804 -107.25439453 53.51977539 C-107.48819481 34.84763494 -100.31140499 17.62772773 -87.33984375 4.30078125 C-62.09153611 -19.02017466 -27.17085082 -20.14917027 0 0 Z " fill="#F5F5F6" transform="translate(360.78125,197.0625)"/>
<path d="M0 0 C10.60761706 8.43282053 18.4349765 19.0729746 23.25048828 31.73193359 C23.57017578 32.52341797 23.88986328 33.31490234 24.21923828 34.13037109 C26.37426574 40.45577576 26.52767137 46.67685494 26.56298828 53.29443359 C26.56854736 54.16890137 26.57410645 55.04336914 26.57983398 55.94433594 C26.36998236 75.07491261 18.25130178 91.14657495 4.68798828 104.48193359 C-9.84121792 116.89041715 -27.74896507 121.0109744 -46.48388672 119.94335938 C-62.80718366 118.42008619 -78.2804184 109.51613519 -88.87451172 97.23193359 C-100.53613413 81.80926055 -105.60841161 63.97856222 -103.74951172 44.73193359 C-101.25792981 26.83407022 -92.03626141 10.56959364 -77.57763672 -0.38525391 C-53.76029645 -16.2415495 -23.60479825 -17.10903183 0 0 Z " fill="#F5F5F6" transform="translate(742.74951171875,195.26806640625)"/>
<path d="M0 0 C10.84720047 8.05266747 17.46013722 18.71456389 20 32 C21.41822676 45.86060789 18.45696741 58.80268478 10 70 C-0.07570843 81.73175047 -11.43021082 88.330841 -26.8828125 90.3828125 C-39.0605202 90.91536531 -51.79534571 85.7815127 -61.21484375 78.22265625 C-71.99521278 68.10442121 -77.79233573 55.35848256 -78.52124023 40.61767578 C-78.78725191 26.56155599 -73.28259653 14.69595542 -63.875 4.375 C-46.16870304 -12.43230175 -19.91434477 -13.74163274 0 0 Z " fill="#F5F5F6" transform="translate(541,487)"/>
<path d="M0 0 C0.66 0.33 1.32 0.66 2 1 C3.16215141 8.92284091 3.47006819 17.1150888 2 25 C1.34 25.66 0.68 26.32 0 27 C-0.88254002 21.70475989 -1.15308122 16.61351314 -1.125 11.25 C-1.12886719 10.49589844 -1.13273438 9.74179688 -1.13671875 8.96484375 C-1.13095167 5.71797795 -1.03370978 3.10112935 0 0 Z " fill="#EFEFEF" transform="translate(640,237)"/>
<path d="M0 0 C8.91 0 17.82 0 27 0 C25.02 0.99 25.02 0.99 23 2 C22.67 2.33 22.34 2.66 22 3 C19.62758528 3.12719929 17.25079379 3.17587674 14.875 3.1875 C13.57304687 3.20167969 12.27109375 3.21585938 10.9296875 3.23046875 C6.88658815 2.99334861 3.81934952 2.25492913 0 1 C0 0.67 0 0.34 0 0 Z " fill="#EBECEC" transform="translate(498,605)"/>
<path d="M0 0 C4.45821166 -0.08674429 8.91620804 -0.14030513 13.375 -0.1875 C14.64601563 -0.21263672 15.91703125 -0.23777344 17.2265625 -0.26367188 C18.43828125 -0.27333984 19.65 -0.28300781 20.8984375 -0.29296875 C22.01911621 -0.3086792 23.13979492 -0.32438965 24.29443359 -0.34057617 C25.18727051 -0.22818604 26.08010742 -0.1157959 27 0 C27.66 0.99 28.32 1.98 29 3 C19.05603122 3.25068829 9.8223548 2.6950751 0 1 C0 0.67 0 0.34 0 0 Z " fill="#EBEBEB" transform="translate(688,347)"/>
<path d="M0 0 C2.53552912 1.26776456 2.84919575 2.46823065 4 5 C4.33 5.66 4.66 6.32 5 7 C5 9 5 11 5 13 C5.33 13.66 5.66 14.32 6 15 C5.01 15 4.02 15 3 15 C2.29911844 13.25531628 1.61475991 11.50398839 0.9375 9.75 C0.55464844 8.77546875 0.17179687 7.8009375 -0.22265625 6.796875 C-1.01113787 3.95992605 -1.02437812 2.70590448 0 0 Z " fill="#EFEFEF" transform="translate(472,410)"/>
<path d="M0 0 C6.93 0.495 6.93 0.495 14 1 C14 1.99 14 2.98 14 4 C8.34605369 4.34615998 4.96993194 3.43425238 0 1 C0 0.67 0 0.34 0 0 Z " fill="#DCDDDD" transform="translate(466,825)"/>
<path d="M0 0 C6.06892629 -0.25287193 11.16200408 0.30167391 17 2 C17 2.33 17 2.66 17 3 C11.39 3 5.78 3 0 3 C0 2.01 0 1.02 0 0 Z " fill="#E8E8E8" transform="translate(508,446)"/>
<path d="M0 0 C2.3431213 0.25561323 4.67843403 0.59270772 7 1 C8.53266582 4.06533164 8.10276471 7.26754272 8.0625 10.625 C8.05798828 11.33140625 8.05347656 12.0378125 8.04882812 12.765625 C8.03703875 14.51045275 8.01910324 16.255237 8 18 C7.67 18 7.34 18 7 18 C7 13.38 7 8.76 7 4 C5.35 3.67 3.7 3.34 2 3 C1.34 2.67 0.68 2.34 0 2 C0 1.34 0 0.68 0 0 Z " fill="#EFF0F0" transform="translate(418,649)"/>
<path d="M0 0 C0.99 0.66 1.98 1.32 3 2 C2.34 3.98 1.68 5.96 1 8 C-0.98 8 -2.96 8 -5 8 C-3.35 5.36 -1.7 2.72 0 0 Z " fill="#EDEEEE" transform="translate(214,391)"/>
<path d="M0 0 C3.09162264 1.38589981 4.49183541 2.49183541 7 5 C3.7 6.32 0.4 7.64 -3 9 C-2 6 -2 6 0.0625 4.8125 C0.701875 4.544375 1.34125 4.27625 2 4 C1.34 2.68 0.68 1.36 0 0 Z " fill="#EEEEEE" transform="translate(638,321)"/>
<path d="M0 0 C0.33 0 0.66 0 1 0 C1 6.6 1 13.2 1 20 C1.66 20.33 2.32 20.66 3 21 C1.35 21.33 -0.3 21.66 -2 22 C-1.67 21.34 -1.34 20.68 -1 20 C-0.84876169 18.4804236 -0.75118307 16.95527498 -0.68359375 15.4296875 C-0.64169922 14.53378906 -0.59980469 13.63789062 -0.55664062 12.71484375 C-0.49766602 11.30912109 -0.49766602 11.30912109 -0.4375 9.875 C-0.39431641 8.93011719 -0.35113281 7.98523438 -0.30664062 7.01171875 C-0.20040928 4.67462908 -0.09836824 2.3374317 0 0 Z " fill="#ECEBEC" transform="translate(642,545)"/>
<path d="M0 0 C0 3 0 3 0 3 Z M-3 4 C-3 4.99 -3 5.98 -3 7 C-3.99 7.66 -4.98 8.32 -6 9 C-4.125 5.125 -4.125 5.125 -3 4 Z M-11 13 C-10.34 13.66 -9.68 14.32 -9 15 C-9.99 15 -10.98 15 -12 15 C-11.67 14.34 -11.34 13.68 -11 13 Z M-14 15 C-13.34 15.33 -12.68 15.66 -12 16 C-12.99 16 -13.98 16 -15 16 C-14.67 15.67 -14.34 15.34 -14 15 Z " fill="#E8E9E9" transform="translate(397,306)"/>
<path d="M0 0 C0.33 0 0.66 0 1 0 C1.33 2.31 1.66 4.62 2 7 C2.33 7 2.66 7 3 7 C2.67 9.97 2.34 12.94 2 16 C0 14 0 14 -0.1953125 10.7421875 C-0.17210937 9.46601562 -0.14890625 8.18984375 -0.125 6.875 C-0.10695312 5.59367188 -0.08890625 4.31234375 -0.0703125 2.9921875 C-0.04710937 2.00476563 -0.02390625 1.01734375 0 0 Z " fill="#ECEBEB" transform="translate(156,574)"/>
<path d="M0 0 C0.99 0 1.98 0 3 0 C2.52797514 4.24822374 0.03344482 6.19989709 -3 9 C-3 5.30581799 -1.71820705 3.22163822 0 0 Z " fill="#EEEEEE" transform="translate(793,824)"/>
<path d="M0 0 C0 0.66 0 1.32 0 2 C-4.33273814 2.92844389 -7.66726186 2.92844389 -12 2 C-12 1.67 -12 1.34 -12 1 C-7.93631321 0.22596442 -4.13574827 -0.0984702 0 0 Z " fill="#E7E7E8" transform="translate(685,348)"/>
<path d="M0 0 C0.99 0 1.98 0 3 0 C4.65 2.97 6.3 5.94 8 9 C7.01 9.33 6.02 9.66 5 10 C4.731875 9.236875 4.46375 8.47375 4.1875 7.6875 C3.04199033 5.09503074 2.00288478 3.91184456 0 2 C0 1.34 0 0.68 0 0 Z " fill="#ECECEC" transform="translate(618,297)"/>
<path d="M0 0 C1.32 0.66 2.64 1.32 4 2 C3.67 3.32 3.34 4.64 3 6 C1.35 6 -0.3 6 -2 6 C-1.34 4.02 -0.68 2.04 0 0 Z " fill="#F0F0F0" transform="translate(403,372)"/>
<path d="M0 0 C1.08667969 0.29197266 1.08667969 0.29197266 2.1953125 0.58984375 C2.74960937 0.74582031 3.30390625 0.90179688 3.875 1.0625 C3.875 1.7225 3.875 2.3825 3.875 3.0625 C-1.54038462 3.43173077 -1.54038462 3.43173077 -4.5 1.5625 C-5.03625 1.0675 -5.5725 0.5725 -6.125 0.0625 C-3.57797384 -1.21101308 -2.6967055 -0.73941925 0 0 Z " fill="#EFEFEF" transform="translate(754.125,354.9375)"/>
<path d="M0 0 C0.66 0.33 1.32 0.66 2 1 C2 1.99 2 2.98 2 4 C1.34 4 0.68 4 0 4 C0.556875 4.8353125 0.556875 4.8353125 1.125 5.6875 C2 8 2 8 1.125 10.75 C0.75375 11.4925 0.3825 12.235 0 13 C-0.33 13 -0.66 13 -1 13 C-2.0070238 7.96488101 -1.97387813 4.76052962 0 0 Z " fill="#E9E9E9" transform="translate(643,224)"/>
<path d="M0 0 C3 3 3 3 3.29296875 5.04296875 C3.1953125 7.02864583 3.09765625 9.01432292 3 11 C2.01 10.67 1.02 10.34 0 10 C0 6.7 0 3.4 0 0 Z " fill="#EDEEEE" transform="translate(223,797)"/>
<path d="M0 0 C0.66 0.33 1.32 0.66 2 1 C2 2.32 2 3.64 2 5 C1.34 5 0.68 5 0 5 C-0.12375 5.804375 -0.2475 6.60875 -0.375 7.4375 C-0.58125 8.283125 -0.7875 9.12875 -1 10 C-1.99 10.495 -1.99 10.495 -3 11 C-2.01 7.37 -1.02 3.74 0 0 Z " fill="#E8E9E9" transform="translate(865,588)"/>
<path d="M0 0 C1.4606285 2.64738916 2 3.89448334 2 7 C0.02 7.66 -1.96 8.32 -4 9 C-2.80100302 5.9168649 -1.52299523 2.93720508 0 0 Z " fill="#EDEEEE" transform="translate(583,559)"/>
<path d="M0 0 C0.99 0.33 1.98 0.66 3 1 C4.1875 4.5625 4.1875 4.5625 5 8 C3.68 7.67 2.36 7.34 1 7 C0.67 4.69 0.34 2.38 0 0 Z " fill="#E7E7E8" transform="translate(334,602)"/>
<path d="M0 0 C-4.1795645 2.78637633 -6.14668677 1.79562512 -11 1 C-11 0.67 -11 0.34 -11 0 C-6.98195309 -0.84098656 -3.98196457 -1.05404945 0 0 Z " fill="#E1E1E1" transform="translate(494,857)"/>
<path d="M0 0 C0.66 0.33 1.32 0.66 2 1 C2 1.66 2 2.32 2 3 C-0.64738916 4.4606285 -1.89448334 5 -5 5 C-4.1875 3.0625 -4.1875 3.0625 -3 1 C-2.01 0.67 -1.02 0.34 0 0 Z " fill="#ECECED" transform="translate(533,568)"/>
<path d="M0 0 C-0.99 1.485 -0.99 1.485 -2 3 C-5.625 3.1875 -5.625 3.1875 -9 3 C-6.38997624 -0.48003168 -4.1689578 -0.27793052 0 0 Z " fill="#EDEDED" transform="translate(312,151)"/>
<path d="M0 0 C4.455 0.99 4.455 0.99 9 2 C7.02 2.99 7.02 2.99 5 4 C2.30066074 3.07451225 1.28813232 2.57626463 0 0 Z " fill="#EBECEB" transform="translate(295,308)"/>
<path d="M0 0 C0.99 0.33 1.98 0.66 3 1 C3.33 3.31 3.66 5.62 4 8 C3.01 7.67 2.02 7.34 1 7 C0.67 4.69 0.34 2.38 0 0 Z " fill="#F0F0F0" transform="translate(255,260)"/>
<path d="M0 0 C1.98 0.99 1.98 0.99 4 2 C3.67 3.98 3.34 5.96 3 8 C1.0549 5.08235 0.54723683 3.37462715 0 0 Z " fill="#EAEAEA" transform="translate(793,213)"/>
</svg>
