<?xml version="1.0" encoding="UTF-8"?>
<svg version="1.1" xmlns="http://www.w3.org/2000/svg" width="1024" height="1024">
<path d="M0 0 C337.92 0 675.84 0 1024 0 C1024 337.92 1024 675.84 1024 1024 C686.08 1024 348.16 1024 0 1024 C0 686.08 0 348.16 0 0 Z " fill="#F8F8F8" transform="translate(0,0)"/>
<path d="M0 0 C4.01846791 1.86035195 6.8918704 4.52753993 10.0625 7.5625 C14.06583177 11.32747144 18.09452638 14.9848841 22.375 18.4375 C24.25049394 19.95772416 26.12544313 21.47862051 28 23 C28.91048096 23.73669922 28.91048096 23.73669922 29.83935547 24.48828125 C44.93102953 36.79213057 44.93102953 36.79213057 49 46 C49.34470652 46.75427056 49.68941303 47.50854113 50.0445652 48.28566837 C51.08835035 51.25099794 51.25665107 53.51134046 51.26742554 56.64805603 C51.28022049 58.33660454 51.28022049 58.33660454 51.29327393 60.05926514 C51.29236755 61.28486145 51.29146118 62.51045776 51.29052734 63.77319336 C51.29724457 65.07126419 51.30396179 66.36933502 51.31088257 67.70674133 C51.3285193 71.26047272 51.3332369 74.81410775 51.33451414 78.36787868 C51.33593737 80.58964393 51.34021017 82.81138481 51.34550858 85.033144 C51.36399962 92.78830644 51.37218016 100.54340022 51.37060547 108.29858398 C51.36940361 115.52128706 51.39051678 122.74369152 51.4220928 129.96631902 C51.44826086 136.17369519 51.45897258 142.38097383 51.45769465 148.58840472 C51.45718526 152.29310747 51.4628556 155.99754462 51.48405075 159.70219231 C51.50704653 163.83413943 51.49790911 167.96541864 51.48583984 172.09741211 C51.49707886 173.32098419 51.50831787 174.54455627 51.51989746 175.8052063 C51.44045369 186.49230083 51.44045369 186.49230083 47 191 C41.19146795 195.08712083 36.82426251 195.57465027 29.82151794 195.50793457 C28.81113293 195.51417453 27.80074792 195.5204145 26.75974518 195.52684355 C23.38182747 195.54276931 20.00463176 195.53017047 16.62670898 195.51757812 C14.20194071 195.52299937 11.77717573 195.53012203 9.35241699 195.53881836 C3.45508097 195.55516025 -2.44206825 195.55277421 -8.33939905 195.5411678 C-13.13277144 195.53212543 -17.92608678 195.53091293 -22.71946526 195.53526306 C-23.40229872 195.53587599 -24.08513217 195.53648893 -24.78865756 195.53712043 C-26.17591145 195.53839936 -27.56316532 195.53969621 -28.95041918 195.5410108 C-41.95030213 195.55240958 -54.95007214 195.5393135 -67.94993656 195.51780933 C-79.10071409 195.49993493 -90.25132507 195.50304656 -101.40209961 195.52148438 C-114.35776811 195.54289661 -127.31333773 195.55131524 -140.26902145 195.53903532 C-141.65079779 195.53776115 -143.03257414 195.53650366 -144.41435051 195.53526306 C-145.09417656 195.53464596 -145.77400261 195.53402886 -146.47442945 195.53339306 C-151.26170499 195.5299415 -156.04891773 195.53576419 -160.83618355 195.54518127 C-167.28029557 195.55757921 -173.72416699 195.54873651 -180.16825104 195.52560425 C-182.53457809 195.52031071 -184.90093159 195.52184188 -187.26724815 195.53065491 C-190.49469163 195.54156783 -193.7211228 195.52789712 -196.94850159 195.50793457 C-197.88731393 195.51685746 -198.82612627 195.52578034 -199.79338747 195.53497362 C-206.67158546 195.45231914 -210.19579698 193.52269183 -215.34165955 188.89341736 C-217.82245358 184.56501029 -217.56636601 180.61410199 -217.53344727 175.70532227 C-217.54637062 174.15323563 -217.54637062 174.15323563 -217.55955505 172.5697937 C-217.58224491 169.15174292 -217.57547005 165.73451003 -217.56640625 162.31640625 C-217.57164062 159.93895728 -217.57791642 157.56151038 -217.58518982 155.18406677 C-217.59559977 150.20163195 -217.59102396 145.21948263 -217.57641602 140.23706055 C-217.55923145 133.85335019 -217.58271745 127.47054015 -217.61790562 121.08693027 C-217.63987081 116.17724141 -217.63844009 111.26776823 -217.6301403 106.35804558 C-217.62932024 104.00452627 -217.63619408 101.65099121 -217.65091133 99.29751778 C-217.66833911 96.00580718 -217.65382735 92.71571776 -217.63110352 89.42407227 C-217.64279572 88.45297012 -217.65448792 87.48186798 -217.66653442 86.4813385 C-217.6053133 82.12058176 -217.46718056 78.97848448 -214.71055603 75.47349548 C-210.12470509 71.28871514 -207.24943449 70.74980146 -201.03198242 70.74171448 C-199.97987422 70.73620092 -199.97987422 70.73620092 -198.90651131 70.73057598 C-196.5560898 70.72059587 -194.20590489 70.72474688 -191.85546875 70.72875977 C-190.16993458 70.72437246 -188.48440257 70.71907029 -186.7988739 70.71292114 C-183.16755853 70.70141618 -179.53630156 70.69596132 -175.90496826 70.69503975 C-170.15485335 70.69309818 -164.40485882 70.67503774 -158.65478516 70.65428162 C-144.36557318 70.60509448 -130.07632832 70.57426287 -115.78704834 70.55297852 C-104.69433566 70.53642603 -93.60172581 70.51351202 -82.50908184 70.46995777 C-76.80218316 70.44826062 -71.09548018 70.4401163 -65.38854313 70.44235051 C-61.82282779 70.44067415 -58.25723821 70.42656605 -54.69156837 70.40913773 C-53.04858128 70.40357606 -51.40556769 70.40301773 -49.76257896 70.40807533 C-35.26386947 70.44799626 -22.75859828 69.29022404 -11.80859375 58.92578125 C-5.43050605 52.19531302 -1.00906365 44.39880056 -0.79467773 34.96582031 C-0.77473251 34.18531311 -0.75478729 33.40480591 -0.73423767 32.60064697 C-0.71752518 31.76821472 -0.70081268 30.93578247 -0.68359375 30.078125 C-0.6524221 28.78814606 -0.6524221 28.78814606 -0.62062073 27.47210693 C-0.55536261 24.73148402 -0.49635083 21.99076725 -0.4375 19.25 C-0.39429219 17.3893133 -0.35067718 15.52863602 -0.30664062 13.66796875 C-0.19970558 9.11207477 -0.09837149 4.5560866 0 0 Z " fill="#F8F8F8" transform="translate(434,618)"/>
<path d="M0 0 C37.94966806 -0.94611361 77.43171488 12.00265752 105.09765625 38.21484375 C105.59894043 38.69453613 106.10022461 39.17422852 106.61669922 39.66845703 C107.61826078 40.62550475 108.62503092 41.57713454 109.63720703 42.52294922 C129.611397 61.20932101 142.50332819 84.31994462 151.1328125 110.1171875 C151.51542236 111.24906494 151.51542236 111.24906494 151.90576172 112.40380859 C165.78401892 154.50712366 159.95124853 201.49363698 140.5703125 240.8046875 C136.67294593 248.5299339 132.34549485 255.9823745 127.9453125 263.4296875 C109.6091232 294.48027109 100.06915121 325.09440074 109.21582031 360.76416016 C111.34130749 368.53610927 113.71529133 376.24582355 116.18530273 383.91503906 C120.71224935 398.29328777 120.71224935 398.29328777 117.9453125 404.9921875 C114.92485693 408.53341127 112.23275956 408.99719328 107.6953125 409.4921875 C103.34650279 409.03441806 101.52904859 407.84134521 98.1328125 405.1171875 C96.48046875 402.21875 96.48046875 402.21875 95.1953125 398.7421875 C94.95570801 398.09789795 94.71610352 397.4536084 94.46923828 396.78979492 C93.66164576 394.57473575 92.89440824 392.34846467 92.1328125 390.1171875 C91.69702881 388.86494385 91.69702881 388.86494385 91.25244141 387.58740234 C89.03150243 381.14798645 87.01011922 374.66483835 85.1328125 368.1171875 C84.90255371 367.32280273 84.67229492 366.52841797 84.43505859 365.70996094 C78.35757974 343.78612266 78.56232357 316.88430581 85.1328125 295.1171875 C85.36355469 294.34874512 85.59429688 293.58030273 85.83203125 292.78857422 C91.34206231 275.15428831 100.49297656 259.18942468 110.20678711 243.57617188 C131.37758503 209.32469546 139.45732666 167.71723356 130.1328125 128.1171875 C121.11576535 93.38746683 101.52732748 61.44089598 70.15185547 42.94970703 C52.70437398 32.87992434 33.23837673 26.0335069 12.91796875 25.9140625 C12.1445665 25.90836243 11.37116425 25.90266235 10.57432556 25.89678955 C8.94140975 25.88738888 7.30847539 25.88082532 5.67553711 25.87695312 C3.23320263 25.86733669 0.79174381 25.83630409 -1.65039062 25.8046875 C-15.1777879 25.71254369 -28.02518257 27.3385826 -40.8671875 31.8046875 C-41.97827881 32.18488037 -41.97827881 32.18488037 -43.11181641 32.57275391 C-63.30945432 39.73799383 -83.71124792 51.9388572 -96.8671875 69.1171875 C-97.56199219 70.014375 -98.25679687 70.9115625 -98.97265625 71.8359375 C-109.29762078 85.91058794 -116.44687199 101.98835644 -119.8671875 119.1171875 C-120.05990234 120.08205078 -120.25261719 121.04691406 -120.45117188 122.04101562 C-121.67176325 129.15903475 -121.96407124 135.90745386 -121.78125 143.109375 C-121.76093216 143.99189438 -121.74061432 144.87441376 -121.71968079 145.78367615 C-121.62902454 149.43541975 -121.5314194 153.08533321 -121.37353516 156.73486328 C-120.81243411 170.43405965 -122.66330457 179.46825612 -129.8671875 191.1171875 C-130.55937678 192.31165452 -131.24681524 193.50888873 -131.92919922 194.70898438 C-133.89775845 198.14809765 -135.9385517 201.5405949 -137.9921875 204.9296875 C-142.79589842 212.90384762 -147.48710128 220.90117004 -151.8671875 229.1171875 C-150.78546265 229.28528931 -150.78546265 229.28528931 -149.68188477 229.45678711 C-138.95407845 231.17344036 -128.03878079 233.27222245 -120.8671875 242.1171875 C-118.9970305 245.97048665 -118.62988101 249.03057857 -118.671875 253.29296875 C-118.67832031 254.44990234 -118.68476562 255.60683594 -118.69140625 256.79882812 C-118.70816406 257.99701172 -118.72492187 259.19519531 -118.7421875 260.4296875 C-118.75121094 261.64720703 -118.76023437 262.86472656 -118.76953125 264.11914062 C-118.79305713 267.11869024 -118.82593097 270.11783794 -118.8671875 273.1171875 C-117.05734375 273.31248047 -117.05734375 273.31248047 -115.2109375 273.51171875 C-106.46645561 274.614401 -98.18193868 277.83107465 -91.8671875 284.1171875 C-86.03333368 291.78412256 -85.06905248 298.56270158 -85.8671875 308.1171875 C-87.55847462 314.08516881 -92.75659884 318.87593503 -97.8671875 322.1171875 C-100.82952719 323.24848221 -103.82912077 324.21103297 -106.8671875 325.1171875 C-106.14115467 328.5394015 -105.38224622 331.95350443 -104.6171875 335.3671875 C-104.41222656 336.33527344 -104.20726562 337.30335938 -103.99609375 338.30078125 C-102.54062378 345.13354574 -102.54062378 345.13354574 -97.8671875 350.1171875 C-91.90835702 353.09660274 -82.85812242 350.90392552 -76.45703125 350.0234375 C-75.17851036 349.85696716 -75.17851036 349.85696716 -73.87416077 349.68713379 C-71.18349974 349.33652293 -68.4940209 348.97783071 -65.8046875 348.6171875 C-62.25214674 348.14172844 -58.69867702 347.67422653 -55.14453125 347.2109375 C-54.34740219 347.1015686 -53.55027313 346.99219971 -52.72898865 346.8795166 C-44.00504269 345.74222 -36.37277176 344.82580585 -28.8671875 350.1171875 C-22.51605628 355.94985903 -20.294984 363.14769406 -17.71484375 371.14013672 C-16.99571954 373.35630263 -16.24219768 375.55852868 -15.484375 377.76171875 C-12.91810882 385.41795361 -10.5361355 392.95095268 -11.8671875 401.1171875 C-13.6584263 404.3679542 -15.03208643 405.62064092 -18.1796875 407.4921875 C-21.77962615 408.32938254 -24.28560347 408.01258351 -27.8671875 407.1171875 C-32.42641629 404.18323935 -33.98407339 401.32810838 -35.8671875 396.3046875 C-36.11355957 395.65540283 -36.35993164 395.00611816 -36.61376953 394.3371582 C-43.8671875 374.9706718 -43.8671875 374.9706718 -43.8671875 371.1171875 C-45.01082764 371.26865234 -46.15446777 371.42011719 -47.33276367 371.57617188 C-51.63507256 372.14369628 -55.93876201 372.70010689 -60.24291992 373.25341797 C-62.09454242 373.49296972 -63.94579396 373.73540926 -65.79663086 373.98095703 C-100.24266825 378.54396279 -100.24266825 378.54396279 -113.765625 368.84375 C-124.12430789 360.33345662 -127.24546206 349.90465454 -130.1171875 337.1796875 C-130.3853125 336.06400391 -130.6534375 334.94832031 -130.9296875 333.79882812 C-134.62646032 317.70089139 -134.62646032 317.70089139 -131.1796875 310.6796875 C-127.08207695 306.13909203 -122.96510749 304.68341295 -117.0546875 303.4296875 C-115.89324219 303.17832031 -114.73179687 302.92695312 -113.53515625 302.66796875 C-112.21451172 302.39533203 -112.21451172 302.39533203 -110.8671875 302.1171875 C-113.2577146 299.29558174 -115.24484173 298.49538734 -118.8046875 297.6171875 C-119.77664063 297.36453125 -120.74859375 297.111875 -121.75 296.8515625 C-123.83902888 296.35941033 -125.93901608 295.91177563 -128.046875 295.5078125 C-129.08070313 295.29640625 -130.11453125 295.085 -131.1796875 294.8671875 C-132.59701172 294.61195313 -132.59701172 294.61195313 -134.04296875 294.3515625 C-138.33445001 292.47589434 -140.8460696 290.40394418 -142.8671875 286.1171875 C-143.58960395 280.9487584 -143.43495813 275.87418921 -143.2421875 270.6796875 C-143.21205062 269.26633284 -143.18468135 267.8529163 -143.16015625 266.43945312 C-143.094451 262.99739985 -142.99114104 259.55769281 -142.8671875 256.1171875 C-144.0015625 255.88644531 -145.1359375 255.65570313 -146.3046875 255.41796875 C-157.8045191 252.97366482 -167.02074088 250.4086614 -173.8671875 240.1171875 C-176.70064709 234.18463149 -176.82308584 228.56267343 -175.8671875 222.1171875 C-173.79993408 216.43846726 -170.89653086 211.33270872 -167.8671875 206.1171875 C-167.32594238 205.1777832 -166.78469727 204.23837891 -166.22705078 203.27050781 C-163.2916909 198.18710541 -160.3264558 193.12301699 -157.33203125 188.07421875 C-156.7695166 187.09517578 -156.20700195 186.11613281 -155.62744141 185.10742188 C-154.4388733 183.08833975 -153.18857454 181.10453187 -151.88427734 179.15820312 C-145.79376392 169.45149538 -146.12179453 161.03603433 -146.6171875 149.9921875 C-147.32625224 130.73429085 -145.4146485 113.33150564 -138.8671875 95.1171875 C-138.60921387 94.38612793 -138.35124023 93.65506836 -138.08544922 92.90185547 C-132.60425056 77.52760166 -125.75576758 64.46006423 -114.8671875 52.1171875 C-114.135 51.26382813 -113.4028125 50.41046875 -112.6484375 49.53125 C-86.55550854 19.67138412 -48.79628182 3.27388789 -9.5546875 0.3046875 C-6.36934248 0.18408424 -3.18480282 0.13016905 0 0 Z " fill="#010101" transform="translate(765.8671875,246.8828125)"/>
<path d="M0 0 C39.60642719 -1.08928568 79.56253034 12.16173923 108.73828125 39.15234375 C109.53363281 39.87808594 110.32898438 40.60382813 111.1484375 41.3515625 C128.84742107 58.23895247 140.49871533 79.5832549 148.05078125 102.65234375 C148.28104004 103.3376416 148.51129883 104.02293945 148.74853516 104.72900391 C152.86753428 117.98656016 153.99826297 130.90227436 153.28857422 144.68920898 C152.30605265 164.01710971 154.30105498 176.50890162 165.91259766 192.57763672 C168.65473258 196.44478768 170.96171098 200.5339028 173.30078125 204.65234375 C175.28102491 208.05544091 177.25213422 211.43469813 179.4609375 214.6953125 C183.6760023 221.14119154 183.78049908 227.62616415 182.73828125 235.15234375 C180.96770691 241.20315971 177.85488078 246.25122228 172.60546875 249.8359375 C165.71106333 253.00135252 158.10662858 254.47366785 150.73828125 256.15234375 C150.72369873 257.00465576 150.70911621 257.85696777 150.6940918 258.73510742 C150.6328484 261.9130555 150.55866096 265.09036921 150.47583008 268.26782227 C150.44268319 269.64010333 150.41461954 271.01251737 150.3918457 272.38500977 C150.35811359 274.36372141 150.30426635 276.34205751 150.25 278.3203125 C150.22381592 279.50906982 150.19763184 280.69782715 150.1706543 281.92260742 C149.55854234 286.49495588 147.78401238 289.0797498 144.609375 292.3359375 C140.80354468 294.7437077 137.18958624 295.41590211 132.80078125 296.21484375 C127.30167204 297.24790036 122.67540675 298.35490346 117.73828125 301.15234375 C120.42898529 303.84304779 122.79687023 303.97929329 126.48828125 304.83984375 C135.79300893 307.44784237 135.79300893 307.44784237 138.75463867 312.05151367 C142.38393562 319.80284161 138.74044002 329.79063471 136.70483398 337.60205078 C136.17805248 339.64354181 135.68697796 341.69153246 135.19726562 343.7421875 C132.42270975 354.84797249 127.58209266 364.67775439 117.73828125 371.15234375 C102.35608183 379.27435397 85.83700671 375.92804117 69.30078125 373.65234375 C67.49035359 373.41056395 65.679807 373.16967303 63.86914062 372.9296875 C59.49075277 372.34744759 55.1141366 371.75330862 50.73828125 371.15234375 C50.61402771 371.73804138 50.48977417 372.32373901 50.36175537 372.92718506 C48.9894281 379.2694218 47.1591618 385.28742068 44.98828125 391.40234375 C44.66601562 392.36914062 44.34375 393.3359375 44.01171875 394.33203125 C41.90708809 400.25436405 40.14971399 403.80174161 34.73828125 407.15234375 C31.61378584 408.03761745 28.8978017 407.87451985 25.73828125 407.15234375 C22.67546208 405.41674622 20.33731037 403.35040198 18.73828125 400.15234375 C17.82447954 391.77278202 20.52734624 384.51129023 23.21826172 376.70385742 C23.98826501 374.46489098 24.73380361 372.21883572 25.4765625 369.97070312 C25.96341844 368.52686236 26.4516532 367.08348564 26.94140625 365.640625 C27.16137268 364.97799149 27.38133911 364.31535797 27.60797119 363.63264465 C30.23587042 356.09064125 33.97409812 350.79911216 40.98828125 346.90234375 C47.56786884 345.10791077 54.60539258 346.23910847 61.25390625 347.24609375 C62.85154437 347.47408541 64.44920122 347.70194584 66.046875 347.9296875 C68.51298715 348.28883005 70.97862524 348.6509133 73.44384766 349.01611328 C90.96678326 352.5026289 90.96678326 352.5026289 107.73828125 349.15234375 C108.73284845 346.30385522 109.39069753 343.8366738 109.92578125 340.90234375 C110.22924943 339.39662505 110.53519765 337.89140383 110.84375 336.38671875 C111.059104 335.30874023 111.059104 335.30874023 111.27880859 334.20898438 C111.89538886 331.44911608 112.77777146 328.80961313 113.73828125 326.15234375 C112.45953125 325.84296875 111.18078125 325.53359375 109.86328125 325.21484375 C102.83797274 322.86936892 95.99080426 317.42209462 92.61328125 310.71484375 C90.82568364 303.43676776 90.92863557 297.08225474 94.359375 290.31640625 C99.29993359 282.56266841 106.01882512 277.89913213 114.73828125 275.15234375 C118.39196889 274.40342361 122.05826205 273.75746808 125.73828125 273.15234375 C125.71733398 272.40662109 125.69638672 271.66089844 125.67480469 270.89257812 C125.59111491 267.4793065 125.53945331 264.06625151 125.48828125 260.65234375 C125.45476562 259.47929687 125.42125 258.30625 125.38671875 257.09765625 C125.2963823 249.05771217 125.98155391 243.23574303 131.53515625 237.19921875 C139.34329525 232.01461446 149.36720599 229.15234375 158.73828125 229.15234375 C158.39273193 228.56146973 158.04718262 227.9705957 157.69116211 227.36181641 C153.36590178 219.96310202 149.04935629 212.55933032 144.73828125 205.15234375 C144.21488159 204.25337372 144.21488159 204.25337372 143.6809082 203.33624268 C141.59225267 199.74809191 139.50698016 196.15800895 137.42605591 192.56536865 C136.43617988 190.85778192 135.44356789 189.15178217 134.45092773 187.44580078 C133.84837158 186.40407715 133.24581543 185.36235352 132.625 184.2890625 C132.09092529 183.36826904 131.55685059 182.44747559 131.0065918 181.4987793 C128.44895521 176.76702853 128.65606279 172.53603361 128.74609375 167.3046875 C128.76365145 165.48242784 128.78055559 163.66016179 128.796875 161.83789062 C128.82744489 158.98834037 128.86246491 156.13912055 128.90966797 153.28979492 C129.4357355 119.7308238 120.92557883 88.07702259 97.34887695 63.29614258 C90.42321618 56.25090711 83.27992914 50.17816823 74.73828125 45.15234375 C74.04250977 44.74145508 73.34673828 44.33056641 72.62988281 43.90722656 C42.82151431 26.62533198 6.51133347 20.11588491 -27.26171875 28.15234375 C-50.47347553 34.35656728 -68.73588358 44.67190928 -86.26171875 61.15234375 C-86.85210937 61.67828125 -87.4425 62.20421875 -88.05078125 62.74609375 C-111.19790079 84.24768347 -124.48543737 119.15387569 -126.26171875 150.15234375 C-127.59237099 189.4035467 -118.16493446 219.58443742 -98.26171875 253.15234375 C-77.26440523 288.86695236 -67.5775497 325.94622305 -78.26171875 367.15234375 C-80.34682226 374.90176526 -82.7100136 382.54484028 -85.26171875 390.15234375 C-85.50067871 390.87437988 -85.73963867 391.59641602 -85.98583984 392.34033203 C-90.49803031 405.77049953 -90.49803031 405.77049953 -97.26171875 409.15234375 C-102.49440881 409.55485837 -105.8011236 408.95318256 -110.26171875 406.15234375 C-113.16646878 401.7952187 -112.82670666 398.27440518 -112.26171875 393.15234375 C-111.25889744 388.88164383 -109.99126157 384.71922246 -108.64282227 380.54571533 C-107.57380241 377.23268425 -106.55291891 373.90480888 -105.52734375 370.578125 C-105.32641113 369.93006897 -105.12547852 369.28201294 -104.91845703 368.61431885 C-95.37130128 337.6425137 -97.04016877 308.9430519 -111.93408203 279.89013672 C-116.68854691 270.98834871 -121.72183166 262.2478732 -126.78955078 253.52148438 C-151.36963462 211.11628145 -158.3584362 163.81710613 -146.01953125 116.3046875 C-138.41185608 88.71721606 -124.04804538 64.63191394 -104.26171875 44.15234375 C-103.45089844 43.28996094 -102.64007813 42.42757812 -101.8046875 41.5390625 C-74.99204375 13.6868332 -37.94126311 1.7721069 0 0 Z " fill="#010101" transform="translate(251.26171875,246.84765625)"/>
<path d="M0 0 C3.32906313 1.96800969 6.10968683 4.44283819 9 7 C10.02108933 7.86735531 11.04467148 8.73178182 12.0703125 9.59375 C14.29737675 11.46588108 16.51661294 13.34664599 18.73046875 15.234375 C21.68113529 17.74196467 24.67703635 20.18937736 27.6875 22.625 C32.08370366 26.20049415 36.28985859 29.94091209 40.4765625 33.7578125 C43.05082358 36.04515904 45.69289489 38.21548271 48.375 40.375 C63.36001088 52.57950603 78.31807267 67.03827482 82 87 C82.29891673 91.32692452 82.29375723 95.64499254 82.29052734 99.98095703 C82.29724457 101.27782944 82.30396179 102.57470184 82.31088257 103.91087341 C82.32848259 107.45462625 82.33323556 110.99828236 82.33451414 114.54207468 C82.33594034 116.76223015 82.3402189 118.9823614 82.34550858 121.20251083 C82.36399293 128.96575212 82.37218168 136.72892493 82.37060547 144.4921875 C82.36940629 151.69888876 82.39046864 158.90528946 82.4220928 166.11191475 C82.44836078 172.3219883 82.4589683 178.53196438 82.45769465 184.74209297 C82.45718786 188.4408418 82.46271202 192.13932362 82.48405075 195.83801651 C82.50725685 199.97310702 82.49784842 204.10753742 82.48583984 208.24267578 C82.49707886 209.44728958 82.50831787 210.65190338 82.51989746 211.89302063 C82.43449987 223.53523396 80.08197148 233.87539359 72.265625 242.77734375 C62.57691836 252.28229906 52.53276314 255.46872531 39.15945435 255.39440918 C37.59125405 255.40354584 37.59125405 255.40354584 35.99137294 255.41286707 C32.51252791 255.42942345 29.03405186 255.4247317 25.55517578 255.41992188 C23.05103172 255.42726642 20.54689104 255.43585377 18.04275513 255.44558716 C11.96135843 255.46546935 5.88010503 255.47118611 -0.20131145 255.46939927 C-5.14758733 255.4680882 -10.0938336 255.47191335 -15.04010391 255.47932434 C-16.46849509 255.48142368 -17.89688627 255.48352128 -19.32527745 255.48561716 C-20.03637229 255.48666069 -20.74746713 255.48770422 -21.4801103 255.48877937 C-34.90793316 255.50765298 -48.33570131 255.50664026 -61.76353194 255.49981004 C-74.02834254 255.49423547 -86.2929442 255.51506139 -98.55770598 255.54817051 C-111.17355691 255.58196117 -123.7893079 255.59706925 -136.40520489 255.59245348 C-143.47912582 255.59021437 -150.5528536 255.59536993 -157.62673569 255.62034607 C-164.28022368 255.64363941 -170.93335058 255.64071137 -177.5868721 255.62041855 C-180.0232553 255.61701362 -182.4596679 255.6220751 -184.89601135 255.63640213 C-200.543931 255.72204361 -213.14525034 255.72497521 -225.03125 244.2265625 C-233.67161721 234.45471864 -236.47302582 223.17759007 -236.38818359 210.36303711 C-236.39606903 208.86316505 -236.39606903 208.86316505 -236.40411377 207.33299255 C-236.41719791 204.06427879 -236.40861754 200.7960615 -236.3984375 197.52734375 C-236.4004614 195.23531502 -236.40337547 192.94328692 -236.40713501 190.65126038 C-236.41154255 185.86274038 -236.40517732 181.07438898 -236.39111328 176.28588867 C-236.37401286 170.16749894 -236.38387831 164.04950383 -236.40183067 157.9311285 C-236.41270265 153.20318155 -236.40920665 148.47532723 -236.4014473 143.7473774 C-236.39945524 141.49207067 -236.40186938 139.23675536 -236.40888596 136.98145866 C-236.41655779 133.82327047 -236.40481638 130.66571014 -236.38818359 127.50756836 C-236.39425629 126.58832581 -236.40032898 125.66908325 -236.40658569 124.72198486 C-236.29699965 113.41394413 -232.66343243 103.08294594 -224.890625 94.734375 C-212.81205461 83.48880947 -200.06811771 82.7014959 -184.28442383 82.72875977 C-182.59826914 82.72436707 -180.91211663 82.71906294 -179.22596741 82.71292114 C-175.61000558 82.70146565 -171.994102 82.69596504 -168.37812233 82.69503975 C-162.65865926 82.69309198 -156.93931616 82.67500205 -151.21989441 82.65428162 C-137.01998184 82.60519904 -122.820037 82.5741873 -108.62005615 82.55297852 C-97.57070178 82.53645453 -86.52145111 82.51365618 -75.47216624 82.46995777 C-69.78784816 82.44819045 -64.10372718 82.44012257 -58.41937029 82.44235051 C-54.88453983 82.44068342 -51.34983815 82.42663372 -47.81505394 82.40913773 C-46.1776053 82.40354084 -44.54012994 82.40305059 -42.90267944 82.40807533 C-40.66507548 82.41422157 -38.42828349 82.40197755 -36.19075012 82.38526917 C-34.31399959 82.38225217 -34.31399959 82.38225217 -32.39933491 82.37917423 C-27.76994005 81.86279462 -24.33776226 80.47615146 -21.1875 77 C-18.97597911 73.27533325 -18.86746996 70.21472427 -18.84228516 65.97143555 C-18.83202301 64.72972092 -18.82176086 63.48800629 -18.81118774 62.20866394 C-18.80774982 61.54542807 -18.8043119 60.88219219 -18.80076981 60.19885826 C-18.78895378 58.11756853 -18.76949341 56.03648378 -18.74765015 53.95527649 C-18.68613095 48.03836943 -18.63204929 42.12148355 -18.59863281 36.2043457 C-18.57763107 32.58267213 -18.54228381 28.96137316 -18.49787521 25.33991432 C-18.4837578 23.96333044 -18.47500242 22.58668029 -18.47182083 21.21002769 C-18.46688593 19.27885275 -18.44207199 17.34776003 -18.41650391 15.41674805 C-18.40437363 13.77152412 -18.40437363 13.77152412 -18.39199829 12.09306335 C-17.76514794 7.1468993 -16.00667494 3.93476959 -12.375 0.5625 C-7.82601153 -1.54351318 -4.74273354 -1.59146818 0 0 Z M6 37 C5.98598145 38.6857312 5.98598145 38.6857312 5.97167969 40.40551758 C5.93144126 44.62351365 5.8655931 48.84080599 5.79248047 53.05834961 C5.76446535 54.87466305 5.74315526 56.691094 5.72900391 58.50756836 C5.60276527 73.80348348 4.10785043 85.42105386 -6.8125 96.90625 C-15.20333072 104.89107278 -24.90121797 107.12000059 -36.24890137 107.13130188 C-36.95624908 107.13341759 -37.66359679 107.13553331 -38.39237928 107.13771313 C-40.75053428 107.14368032 -43.10863527 107.14271535 -45.46679688 107.1418457 C-47.16235952 107.14487929 -48.85792135 107.1484013 -50.55348206 107.15237427 C-54.19895009 107.16024682 -57.84440841 107.1654019 -61.48988342 107.16866493 C-67.25528951 107.17458628 -73.02063424 107.19113609 -78.78601074 107.21000671 C-80.76136013 107.21634351 -82.73670956 107.22266914 -84.71205902 107.22898388 C-85.7010831 107.23214969 -86.69010717 107.2353155 -87.70910168 107.23857725 C-101.12718339 107.28063246 -114.54523563 107.31364438 -127.96337891 107.32592773 C-137.02125899 107.33430464 -146.0789862 107.35677775 -155.1367898 107.3952834 C-159.92796045 107.41504908 -164.71890254 107.42744675 -169.51011658 107.42244911 C-174.0148063 107.4178071 -178.51906221 107.43158347 -183.02366447 107.45946121 C-184.67561863 107.4663793 -186.32761758 107.4664929 -187.97957039 107.45926094 C-190.23726248 107.45037596 -192.49352272 107.46605803 -194.75109863 107.48774719 C-196.64475536 107.49132972 -196.64475536 107.49132972 -198.57666779 107.49498463 C-203.5113404 108.22295532 -206.47460425 110.37642423 -209.84992886 113.968997 C-211.19042021 116.33627834 -211.38359448 117.78719424 -211.40113831 120.49604797 C-211.41393326 121.391745 -211.42672821 122.28744202 -211.43991089 123.21028137 C-211.43855133 124.18543198 -211.43719177 125.16058258 -211.43579102 126.1652832 C-211.44586685 127.19825531 -211.45594269 128.23122742 -211.46632385 129.29550171 C-211.49484559 132.71403801 -211.50068283 136.13213333 -211.50390625 139.55078125 C-211.51354517 141.92726321 -211.52363748 144.30374337 -211.53416443 146.68022156 C-211.55213692 151.66437913 -211.55768437 156.64838066 -211.5559082 161.63256836 C-211.55560348 168.01516756 -211.59654373 174.39676445 -211.64822483 180.77912617 C-211.68160554 185.68884361 -211.68766521 190.59831935 -211.68607903 195.50813866 C-211.68961691 197.86085652 -211.70287409 200.21358079 -211.72607613 202.5661869 C-211.75551949 205.86034605 -211.74682954 209.15233809 -211.72875977 212.4465332 C-211.74561829 213.41561111 -211.76247681 214.38468903 -211.77984619 215.38313293 C-211.69894731 221.19593949 -210.70812573 224.39496098 -206.67750454 228.64445782 C-203.47171772 231.23496005 -200.78657568 232.24928153 -196.67266464 232.26006222 C-195.80923533 232.26712781 -194.94580602 232.2741934 -194.05621219 232.2814731 C-192.64027833 232.27785047 -192.64027833 232.27785047 -191.19573975 232.27415466 C-190.18932914 232.27939134 -189.18291853 232.28462802 -188.14601064 232.29002339 C-184.7636417 232.30506077 -181.38142355 232.30572937 -177.99902344 232.30639648 C-175.57794437 232.31401549 -173.15686773 232.32244254 -170.73579407 232.33161926 C-164.15099041 232.35359767 -157.56622256 232.36238947 -150.98139095 232.36744571 C-146.8686036 232.37070349 -142.75582559 232.37722648 -138.64304352 232.3844471 C-127.2525551 232.40401297 -115.86207537 232.42041707 -104.47156906 232.42332363 C-103.74272206 232.4235112 -103.01387506 232.42369877 -102.26294179 232.42389202 C-100.78543075 232.42425827 -99.30791971 232.42462197 -97.83040866 232.42498314 C-97.09698416 232.42516595 -96.36355965 232.42534876 -95.60791016 232.42553711 C-94.50642812 232.42580793 -94.50642812 232.42580793 -93.38269392 232.42608423 C-81.4866295 232.42962514 -69.59074618 232.45664227 -57.69474456 232.494035 C-45.47687551 232.5321316 -33.2590963 232.55148121 -21.04116654 232.55178314 C-14.18301126 232.55236744 -7.32507198 232.56084099 -0.46697235 232.58978081 C5.98449536 232.61687975 12.4356481 232.61818794 18.88715553 232.60212517 C21.25426731 232.60030754 23.62140347 232.60702949 25.98846245 232.62294388 C29.22208427 232.64335776 32.45420264 232.63287865 35.68780518 232.61473083 C37.0903547 232.63453079 37.0903547 232.63453079 38.52123857 232.65473074 C44.847133 232.57373592 49.17432625 231.18507882 54 227 C56.8303782 223.47154505 57.37791523 220.86353362 57.40113831 216.39231873 C57.41393326 215.27529068 57.42672821 214.15826263 57.43991089 213.00738525 C57.43855133 211.79121521 57.43719177 210.57504517 57.43579102 209.32202148 C57.44586685 208.03358841 57.45594269 206.74515533 57.46632385 205.41767883 C57.49278817 201.88831323 57.49985613 198.35916596 57.50177121 194.82971072 C57.50390736 192.61994662 57.51031932 190.41023754 57.51826286 188.20048714 C57.54601362 180.47729107 57.55826987 172.75425013 57.5559082 165.03100586 C57.55411009 157.85597818 57.58568316 150.68163025 57.63313919 143.50677437 C57.6725238 137.32985962 57.68845314 131.15316542 57.68654197 124.97612625 C57.68578106 121.29457041 57.69410532 117.61361774 57.72607613 113.93218803 C57.76084893 109.81557675 57.74678459 105.70045925 57.72875977 101.58374023 C57.74561829 100.38173981 57.76247681 99.17973938 57.77984619 97.9413147 C57.66388435 87.46553841 53.9808215 78.4044847 46.796875 70.68359375 C43.73390912 67.8137279 40.47426447 65.20373839 37.1953125 62.5859375 C33.53063395 59.6481756 29.98301252 56.57976009 26.4375 53.5 C25.79981689 52.94715332 25.16213379 52.39430664 24.50512695 51.82470703 C19.91430308 47.83037756 15.40501534 43.75841566 10.953125 39.609375 C8.9934005 37.79822198 8.9934005 37.79822198 6 37 Z " fill="#020202" transform="translate(428,581)"/>
<path d="M0 0 C3.4792124 1.27125068 5.46485319 2.37566205 7.875 5.1875 C10.78095998 12.45239995 8.29027869 19.35891141 5.9921875 26.43359375 C5.67465012 27.44475754 5.35711273 28.45592133 5.029953 29.49772644 C4.34455404 31.67820061 3.65432245 33.85716047 2.95974731 36.034729 C1.11092566 41.83434391 -0.70074626 47.64550574 -2.51171875 53.45703125 C-3.07050468 55.247388 -3.07050468 55.247388 -3.64057922 57.07391357 C-8.27218323 71.98572414 -12.51028989 87.0084848 -16.74462891 102.03686523 C-17.02545822 103.03188553 -17.30628754 104.02690582 -17.59562683 105.05207825 C-18.1196008 106.91097722 -18.64146156 108.77047362 -19.1608429 110.63066101 C-19.38998886 111.4455751 -19.61913483 112.2604892 -19.85522461 113.10009766 C-20.05345322 113.80929352 -20.25168182 114.51848938 -20.45591736 115.24917603 C-21 117 -21 117 -22 119 C-21.25941849 118.99333817 -20.51883698 118.98667633 -19.7558136 118.97981262 C-12.76725206 118.91963367 -5.77872939 118.8739911 1.21002483 118.84456348 C4.80280829 118.82892561 8.39537715 118.80772221 11.98803711 118.77368164 C15.45694391 118.74102035 18.92564464 118.72313286 22.39469337 118.71536827 C24.35838752 118.70714982 26.32199908 118.68374108 28.28556824 118.66011047 C29.4864357 118.65988388 30.68730316 118.65965729 31.92456055 118.65942383 C32.97935104 118.65276199 34.03414154 118.64610016 35.12089539 118.63923645 C39.04340904 119.13074341 41.86766892 120.54414575 44.3125 123.6875 C45.61650159 128.07368718 45.9070506 132.02462105 43.98803711 136.20385742 C42.51174685 138.6192476 40.94173045 140.93499593 39.3125 143.25 C38.10633564 145.03225764 36.90061841 146.81481795 35.6953125 148.59765625 C35.07688477 149.49887207 34.45845703 150.40008789 33.82128906 151.32861328 C31.04234985 155.40463913 28.36566477 159.54486432 25.6875 163.6875 C25.15858154 164.50081787 24.62966309 165.31413574 24.0847168 166.15209961 C19.7300289 172.8500767 15.42496568 179.5793047 11.125 186.3125 C4.63147642 196.47970333 -1.93429353 206.59755373 -8.53515625 216.6953125 C-12.9433565 223.43897506 -17.31800915 230.20415852 -21.68945312 236.97167969 C-23.49661915 239.7686125 -25.3057558 242.56426815 -27.11499023 245.35986328 C-28.03911618 246.78783578 -28.96310684 248.21589584 -29.88696289 249.64404297 C-32.1141341 253.08685716 -34.34254334 256.52885353 -36.57421875 259.96875 C-41.3988952 267.40963064 -46.19621479 274.86705958 -50.96679688 282.34277344 C-61.8521124 299.39102389 -61.8521124 299.39102389 -66.6875 306.75 C-67.24739624 307.6155249 -67.24739624 307.6155249 -67.81860352 308.49853516 C-70.88329974 313.12044732 -74.53732532 318.23266407 -80 320 C-84.28261351 320.47584595 -86.47440024 320.27767535 -90.3125 318.25 C-93.86098226 315.27917764 -94.84064855 313.7969118 -95.24731445 309.21118164 C-95.17807193 303.12969013 -93.22174939 297.26741061 -91.66796875 291.43359375 C-91.31588295 290.08874341 -90.96444651 288.74372291 -90.61361694 287.39854431 C-89.67610426 283.81423964 -88.7272093 280.23304493 -87.77537918 276.65251923 C-87.18749941 274.43749779 -86.60293031 272.22162959 -86.01950073 270.00543213 C-80.31237955 248.33009557 -74.40259289 226.72350864 -67.96704102 205.25146484 C-66.95271091 201.84100073 -65.9719236 198.42275523 -65 195 C-65.76341705 194.99635437 -66.52683411 194.99270874 -67.31338501 194.98895264 C-74.52271015 194.95101975 -81.73152155 194.89410793 -88.94051552 194.81609726 C-92.64639634 194.77665832 -96.35204084 194.74445266 -100.05810547 194.72900391 C-103.63753427 194.7138131 -107.21631324 194.67932627 -110.79545212 194.63169098 C-112.15806796 194.61690184 -113.5207766 194.60896039 -114.88347244 194.60811615 C-128.13267176 194.59165843 -128.13267176 194.59165843 -133 190 C-135.2034581 187.28240168 -135.92630069 185.36112661 -136.625 181.9375 C-134.78210773 170.32727871 -124.53631239 159.61014166 -117.72167969 150.34667969 C-114.95866888 146.58064737 -112.23059014 142.78956768 -109.5 139 C-108.41817716 137.50115164 -107.33614553 136.00245395 -106.25390625 134.50390625 C-105.71781738 133.76156738 -105.18172852 133.01922852 -104.62939453 132.25439453 C-102.99280851 129.99005001 -101.35408835 127.72726419 -99.71484375 125.46484375 C-94.43419578 118.17252036 -89.1804866 110.8638988 -84 103.5 C-78.28088893 95.37046345 -72.4688895 87.31039144 -66.63671875 79.26171875 C-65.01490936 77.02060267 -63.39734868 74.77648685 -61.78125 72.53125 C-56.23018959 64.82214636 -50.6444208 57.14106543 -45 49.5 C-40.43015975 43.31184588 -35.88201888 37.10908957 -31.375 30.875 C-30.84511475 30.14321533 -30.31522949 29.41143066 -29.76928711 28.6574707 C-27.04937763 24.88826874 -24.36648736 21.09794071 -21.73046875 17.26953125 C-21.19824707 16.5007666 -20.66602539 15.73200195 -20.11767578 14.93994141 C-19.11502823 13.48775517 -18.1193509 12.03071945 -17.13232422 10.56787109 C-12.6523861 4.08838567 -8.58155423 -1.22593632 0 0 Z " fill="#010101" transform="translate(557,149)"/>
<path d="M0 0 C3.5250571 2.2223186 5.48661532 4.14370684 7 8 C7.25828552 10.87033081 7.25828552 10.87033081 7.27124023 14.23388672 C7.28652016 16.1263765 7.28652016 16.1263765 7.30210876 18.05709839 C7.30304976 18.72863827 7.30399075 19.40017815 7.30496025 20.09206772 C7.30863421 22.20293414 7.32538876 24.31333502 7.34571838 26.42410278 C7.40102869 32.42376021 7.43177934 38.42348593 7.45629883 44.42333984 C7.47221871 48.09800813 7.50248368 51.77234573 7.54106331 55.44684219 C7.55267459 56.84297283 7.55864332 58.23916272 7.55874443 59.63534164 C7.55893757 61.59271599 7.57877512 63.55005816 7.59936523 65.50732422 C7.60443588 66.61888885 7.60950653 67.73045349 7.61473083 68.8757019 C8.16660544 73.3510686 9.64073486 76.76816597 13 79.8125 C17.01438499 82.19604109 20.40225015 82.13100486 24.98184204 82.14476013 C25.69676044 82.14828698 26.41167884 82.15181382 27.14826143 82.15544754 C29.5501821 82.16614434 31.95206311 82.16981728 34.35400391 82.17358398 C36.07381356 82.17988871 37.79362157 82.18665442 39.51342773 82.19384766 C43.22114344 82.20852616 46.92885281 82.22024764 50.63658524 82.22979546 C56.50338955 82.24524372 62.37013984 82.26919446 68.23690796 82.29469299 C84.92141301 82.36590141 101.60594932 82.42560994 118.29052734 82.47680664 C127.50219288 82.50514803 136.71380499 82.54055245 145.92541444 82.58346039 C151.75268742 82.61017837 157.57989994 82.62811739 163.40722203 82.63949764 C167.0416057 82.64865246 170.6759163 82.66602836 174.31025696 82.68567657 C175.98997722 82.69312226 177.66971627 82.69723133 179.34945297 82.69767189 C193.8222766 82.70453013 206.38984892 83.93887965 217.75 94 C223.97442433 100.69050442 229.09497468 111.17362852 229.14717102 120.37974548 C229.15790398 121.68504211 229.15790398 121.68504211 229.16885376 123.01670837 C229.17154266 123.96373123 229.17423157 124.91075409 229.17700195 125.88647461 C229.18357315 126.89030182 229.19014435 127.89412903 229.19691467 128.92837524 C229.21663438 132.25303221 229.2283105 135.57764392 229.23828125 138.90234375 C229.24235678 140.04086855 229.2464323 141.17939335 229.25063133 142.3524189 C229.27149144 148.38443952 229.2857906 154.41643744 229.29516602 160.44848633 C229.30619984 166.65536739 229.34056526 172.86188694 229.38033772 179.06864071 C229.40659115 183.86017994 229.41486585 188.6516344 229.41844749 193.44323921 C229.42329484 195.72958364 229.43485544 198.01592475 229.45348549 200.30219841 C229.58026611 216.89901362 229.37848061 231.85652081 217.41015625 244.70703125 C210.96120249 250.70076475 202.53288084 255.10942231 193.63698578 255.13701439 C192.76557308 255.14208893 191.89416038 255.14716347 190.99634123 255.15239179 C189.56699082 255.15313843 189.56699082 255.15313843 188.10876465 255.15390015 C187.09292565 255.1582824 186.07708665 255.16266465 185.03046465 255.1671797 C181.61601102 255.18056707 178.20158321 255.18674649 174.78710938 255.19287109 C172.34296553 255.2007722 169.89882285 255.20904116 167.4546814 255.21765137 C160.11177419 255.24160925 152.76887125 255.25680052 145.42593837 255.26971143 C143.35056626 255.2734253 141.27519482 255.27739839 139.19982338 255.2814641 C126.30167686 255.30670546 113.40352923 255.32875044 100.50536346 255.34119225 C97.51887508 255.34412177 94.53238674 255.34708345 91.54589844 255.35009766 C90.80365448 255.35084371 90.06141051 255.35158976 89.29667431 255.35235842 C77.28369016 255.36500104 65.27085438 255.39821039 53.25793952 255.43989949 C40.91349851 255.48238643 28.5691333 255.50589516 16.22461939 255.51111281 C9.2981384 255.51451957 2.37188916 255.52618719 -4.55451965 255.55921555 C-11.07493401 255.59025757 -17.59501891 255.59559508 -24.11552048 255.58383179 C-26.50353372 255.58361134 -28.89156587 255.59189226 -31.27951431 255.60948563 C-47.62454154 255.72331421 -59.57663052 255.26392132 -71.875 243.3203125 C-82.46177897 231.76048399 -82.46571692 218.72280928 -82.43359375 203.859375 C-82.43816145 202.00473846 -82.44346876 200.15010362 -82.44947815 198.29547119 C-82.45837367 194.42575155 -82.4560241 190.55623872 -82.44604492 186.68652344 C-82.43451683 181.73454378 -82.45484335 176.78327316 -82.48396206 171.83138657 C-82.50232011 168.00860084 -82.50203312 164.18598555 -82.49632454 160.36316681 C-82.49617151 158.53716278 -82.50220097 156.71114707 -82.51461601 154.88518524 C-82.5295297 152.33413678 -82.51884968 149.78440623 -82.50170898 147.23339844 C-82.51137695 146.48521851 -82.52104492 145.73703857 -82.53100586 144.96618652 C-82.45912471 139.84536331 -81.24701064 136.93111066 -78 133 C-73.75417853 130.16945236 -69.98515163 130.22590813 -65 131 C-61.37740096 132.8837515 -59.31024369 135.06926894 -58 139 C-57.89557226 141.56884615 -57.8459178 144.11168096 -57.84228516 146.6809082 C-57.83466408 147.85216751 -57.83466408 147.85216751 -57.82688904 149.04708862 C-57.81618958 150.74293713 -57.80756773 152.43879972 -57.80076981 154.13466835 C-57.78897448 156.82082603 -57.76951955 159.5068234 -57.74765015 162.19291687 C-57.68605842 169.83029837 -57.63201207 177.46766358 -57.59863281 185.10522461 C-57.57766452 189.77723939 -57.54234327 194.44896195 -57.49787521 199.12080956 C-57.48373145 200.8993199 -57.47499644 202.67788195 -57.47182083 204.45644569 C-57.46690117 206.94824327 -57.44371637 209.43926817 -57.41650391 211.9309082 C-57.42101311 213.02759575 -57.42101311 213.02759575 -57.4256134 214.1464386 C-57.34990626 218.82454228 -56.45640701 222.02173712 -54 226 C-50.13494643 229.57517455 -47.16740736 231.12120028 -41.91785812 231.13422108 C-41.08367033 231.13867892 -40.24948253 231.14313676 -39.39001632 231.14772969 C-38.47359304 231.14754533 -37.55716976 231.14736097 -36.61297607 231.14717102 C-35.15258608 231.15268605 -35.15258608 231.15268605 -33.66269326 231.1583125 C-30.38547513 231.16936564 -27.10828869 231.17319594 -23.83105469 231.17700195 C-21.48731892 231.18326533 -19.14358414 231.18991201 -16.79985046 231.19691467 C-10.4216658 231.21433502 -4.04348863 231.22487908 2.33471394 231.2331202 C6.31766452 231.23826773 10.30061277 231.24434355 14.28356171 231.25063133 C25.31200453 231.26764251 36.34044637 231.28213674 47.3689003 231.28938007 C50.23047131 231.29128995 53.09204231 231.29321028 55.95361328 231.29516602 C56.66483753 231.29564976 57.37606179 231.2961335 58.10883829 231.2966319 C69.63055173 231.30493245 81.15216136 231.33027025 92.67382947 231.36274669 C104.50406016 231.39582093 116.33423809 231.41382914 128.16451526 231.41702431 C134.80632183 231.41918903 141.44799426 231.42837516 148.08975983 231.45348549 C154.33764723 231.47672491 160.585262 231.4810159 166.83318138 231.47072411 C169.12653445 231.47022765 171.41990076 231.47658029 173.71321297 231.49028015 C176.84415072 231.50793758 179.97410352 231.50092258 183.1050415 231.48774719 C184.46629209 231.50420106 184.46629209 231.50420106 185.8550427 231.52098733 C191.7335852 231.46126436 195.18178269 230.42528985 200 227 C203.65684117 221.98314692 203.43292132 216.9424159 203.40405273 210.97485352 C203.41091599 209.98060364 203.41777924 208.98635376 203.42485046 207.9619751 C203.44311165 204.68413911 203.43928183 201.40678206 203.43359375 198.12890625 C203.43815584 195.84496404 203.4434615 193.5610232 203.44947815 191.27708435 C203.45840792 186.4931785 203.4559875 181.70943959 203.44604492 176.92553711 C203.43455523 170.8010219 203.45476797 164.67708325 203.48396206 158.55264378 C203.5023253 153.83681083 203.50203131 149.12111601 203.49632454 144.40525627 C203.49617134 142.14746225 203.50221425 139.88965885 203.51461601 137.63189888 C203.52952612 134.4724137 203.51884797 131.31399333 203.50170898 128.15454102 C203.51137695 127.22600815 203.52104492 126.29747528 203.53100586 125.34080505 C203.46370402 119.40314906 202.56947064 115.81101924 199 111 C195.45408336 108.5486093 192.10721004 108.74954571 187.88685608 108.7484436 C187.16982197 108.74547346 186.45278786 108.74250333 185.71402544 108.73944318 C183.31065254 108.73180318 180.90752404 108.73829735 178.50415039 108.74462891 C176.78083124 108.74187884 175.05751336 108.73819884 173.334198 108.73365784 C169.6210312 108.72554235 165.90792464 108.72337835 162.19474983 108.72560501 C156.31414505 108.72843926 150.43366033 108.71407966 144.55308533 108.69662476 C127.82992372 108.64961561 111.10676965 108.62567487 94.38354492 108.61914062 C85.14873289 108.61538 75.9140562 108.59726622 66.67930216 108.56404626 C60.84383528 108.54391081 55.00871942 108.5414241 49.1732322 108.55232644 C45.52549777 108.55494953 41.87796391 108.54085112 38.23028183 108.52224541 C36.55062406 108.51696094 34.87092846 108.51835534 33.19128609 108.52728081 C18.49258288 108.59902651 5.22205401 106.66201024 -5.9296875 96.1875 C-13.77054698 87.84186416 -17.07074786 79.00579494 -17.31640625 67.734375 C-17.33718735 66.94097717 -17.35796844 66.14757935 -17.37937927 65.33013916 C-17.44459973 62.80351156 -17.50363144 60.27678279 -17.5625 57.75 C-17.6057114 56.03384384 -17.64932653 54.31769778 -17.69335938 52.6015625 C-17.80025283 48.40114454 -17.90159729 44.20062511 -18 40 C-18.6290625 40.64066406 -19.258125 41.28132812 -19.90625 41.94140625 C-24.4883642 46.57182587 -29.10671455 51.06333313 -34.05273438 55.30224609 C-38.28822097 58.99502114 -42.30245799 62.9391673 -46.3515625 66.83398438 C-47.36089844 67.79208008 -47.36089844 67.79208008 -48.390625 68.76953125 C-49.2882959 69.62961792 -49.2882959 69.62961792 -50.20410156 70.50708008 C-54.24827226 73.86897565 -57.67401656 74.44317805 -62.8125 74.31640625 C-66.16479332 73.83152097 -67.77676689 72.49271591 -70 70 C-72.03969799 66.30911793 -72.51184637 63.18007873 -72 59 C-69.27982841 54.38975614 -66.04715926 50.76716436 -62.25 47.0625 C-61.76273438 46.57587891 -61.27546875 46.08925781 -60.7734375 45.58789062 C-57.32050059 42.17520816 -53.71087986 38.97659161 -50.04394531 35.79663086 C-46.70416277 32.86095721 -43.48087741 29.8044144 -40.25 26.75 C-33.54982718 20.44395499 -26.81794828 14.17876562 -20 8 C-19.21625 7.28714844 -18.4325 6.57429687 -17.625 5.83984375 C-16.573125 4.89818359 -16.573125 4.89818359 -15.5 3.9375 C-14.9121875 3.41027344 -14.324375 2.88304687 -13.71875 2.33984375 C-9.2219378 -1.16562576 -5.50034403 -1.51997579 0 0 Z " fill="#020202" transform="translate(603,581)"/>
<path d="M0 0 C1.74359088 3.48718175 -0.41299463 7.25215111 -1.52734375 10.8125 C-2.07782574 12.62879967 -2.62794398 14.44520962 -3.17773438 16.26171875 C-4.05261914 19.12226682 -4.93172163 21.9813753 -5.81811523 24.83837891 C-6.67086382 27.59703137 -7.50621625 30.36051893 -8.33984375 33.125 C-8.73827736 34.38340698 -8.73827736 34.38340698 -9.14476013 35.66723633 C-10.85267411 41.37467068 -11.88964915 47.04004361 -11 53 C-8.47323961 56.34625024 -6.96066458 57.67977847 -3 59 C-1.35912211 59.11492784 0.2857778 59.17632354 1.93041992 59.20532227 C3.43163643 59.2352401 3.43163643 59.2352401 4.96318054 59.26576233 C6.04138565 59.28247482 7.11959076 59.29918732 8.23046875 59.31640625 C9.33602615 59.33718735 10.44158356 59.35796844 11.5806427 59.37937927 C15.1161979 59.44482332 18.65182806 59.50373603 22.1875 59.5625 C24.58269008 59.6056901 26.97787255 59.64930454 29.37304688 59.69335938 C35.24861842 59.80049948 41.12426472 59.90227557 47 60 C43.03175224 67.53948904 38.71286293 74.71804134 34 81.8125 C32.66434296 83.84177586 31.32973212 85.87174066 29.99609375 87.90234375 C29.32690918 88.92054199 28.65772461 89.93874023 27.96826172 90.98779297 C24.95992561 95.5917189 22.00747971 100.23037529 19.0625 104.875 C14.63515859 111.85594382 10.19207836 118.82623819 5.72827148 125.78393555 C-0.27098719 135.1355368 -6.25285441 144.49074266 -12 154 C-13.12131491 150.63605526 -12.89191871 149.88762105 -11.86010742 146.6237793 C-11.58619675 145.7424382 -11.31228607 144.86109711 -11.03007507 143.95304871 C-10.72495499 143.00303482 -10.4198349 142.05302094 -10.10546875 141.07421875 C-9.79805252 140.09387161 -9.49063629 139.11352448 -9.17390442 138.10346985 C-8.18665525 134.96215436 -7.18718623 131.82487703 -6.1875 128.6875 C-5.52459677 126.58423442 -4.86247784 124.48072147 -4.20117188 122.37695312 C-2.98155711 118.50458251 -1.75878035 114.63326584 -0.52807617 110.7644043 C-0.2644931 109.93419769 -0.00091003 109.10399109 0.2706604 108.24862671 C0.88705044 106.34823476 1.54393997 104.46105058 2.2097168 102.57739258 C3.31261778 98.98044302 2.98580683 96.61462505 2 93 C-0.57660691 89.88094953 -2.1544104 88.2818632 -6 87 C-7.82465899 86.88390641 -9.65307886 86.82343471 -11.48120117 86.79467773 C-12.60213669 86.77473251 -13.7230722 86.75478729 -14.87797546 86.73423767 C-16.08742325 86.71752518 -17.29687103 86.70081268 -18.54296875 86.68359375 C-19.78170242 86.66281265 -21.0204361 86.64203156 -22.29670715 86.62062073 C-25.58625256 86.56628203 -28.87582726 86.51604049 -32.16546631 86.46777344 C-35.52377814 86.41749354 -38.88200046 86.36184139 -42.24023438 86.30664062 C-48.82675159 86.19946952 -55.41333584 86.09769865 -62 86 C-60.88507212 84.23419371 -59.76835366 82.4695179 -58.65087891 80.70532227 C-58.0291983 79.72249771 -57.4075177 78.73967316 -56.76699829 77.72706604 C-54.77162844 74.64754674 -52.65978353 71.80760794 -50.375 68.9375 C-44.58643096 61.56070712 -39.13767815 53.94891673 -33.67333984 46.33056641 C-30.95723954 42.54768145 -28.22816178 38.77419058 -25.5 35 C-22.16538515 30.38467041 -18.83238624 25.76819395 -15.50390625 21.1484375 C-14.92769531 20.34921875 -14.35148437 19.55 -13.7578125 18.7265625 C-12.66735098 17.21398684 -11.57746029 15.70099941 -10.48828125 14.1875 C-7.04724887 9.41617159 -3.54546852 4.69422237 0 0 Z " fill="#F8F8F8" transform="translate(519,232)"/>
<path d="M0 0 C0.66 0.33 1.32 0.66 2 1 C2 9.91 2 18.82 2 28 C1.34 28 0.68 28 0 28 C-0.33 29.32 -0.66 30.64 -1 32 C-2.44238622 29.11522757 -2.02349028 26.71210269 -1.9140625 23.49609375 C-1.87023437 22.19865234 -1.82640625 20.90121094 -1.78125 19.56445312 C-1.75546875 18.88777588 -1.7296875 18.21109863 -1.703125 17.51391602 C-1.62518471 15.44240926 -1.55809548 13.37074874 -1.4921875 11.29882812 C-1.128042 1.128042 -1.128042 1.128042 0 0 Z " fill="#D3D2D3" transform="translate(402,502)"/>
<path d="M0 0 C2.125 0.9375 2.125 0.9375 4 2 C2.58684299 4.23145946 1.16962358 6.46015955 -0.25 8.6875 C-0.64574219 9.31333984 -1.04148437 9.93917969 -1.44921875 10.58398438 C-3.78056537 14.23387949 -6.22119856 17.66671295 -9 21 C-7.83583372 15.08329607 -6.37965851 9.55253653 -4 4 C-3.34 3.67 -2.68 3.34 -2 3 C-2 2.34 -2 1.68 -2 1 C-1.34 0.67 -0.68 0.34 0 0 Z " fill="#F4F5F4" transform="translate(515,365)"/>
<path d="M0 0 C0.66 0 1.32 0 2 0 C4.47060703 7.41182109 3.19696162 16.36936964 2 24 C1.67 24 1.34 24 1 24 C-0.06309567 18.82682579 -0.11693938 13.87630664 -0.0625 8.625 C-0.05798828 7.79355469 -0.05347656 6.96210937 -0.04882812 6.10546875 C-0.03713164 4.07028103 -0.01919935 2.03513077 0 0 Z " fill="#D8D9D9" transform="translate(151,569)"/>
<path d="M0 0 C0.99 0.495 0.99 0.495 2 1 C1.01 1.495 1.01 1.495 0 2 C0 1.34 0 0.68 0 0 Z M-1 2 C-0.29296875 3.671875 -0.29296875 3.671875 0 6 C-1.36328125 8.578125 -1.36328125 8.578125 -3.3125 11.25 C-3.94800781 12.14203125 -4.58351563 13.0340625 -5.23828125 13.953125 C-6.11033203 14.96632813 -6.11033203 14.96632813 -7 16 C-7.66 16 -8.32 16 -9 16 C-7.6744419 12.37723685 -6.05653045 9.36494652 -3.875 6.1875 C-3.33617187 5.39730469 -2.79734375 4.60710937 -2.2421875 3.79296875 C-1.83226562 3.20128906 -1.42234375 2.60960937 -1 2 Z M-10 16 C-9.34 16.66 -8.68 17.32 -8 18 C-8.99 18.33 -9.98 18.66 -11 19 C-10.67 18.01 -10.34 17.02 -10 16 Z M-12 19 C-12 22 -12 22 -12 22 Z " fill="#EEEDEE" transform="translate(516,414)"/>
<path d="M0 0 C2.31 0 4.62 0 7 0 C6.01 0.66 5.02 1.32 4 2 C2.31201173 3.43750191 2.31201173 3.43750191 1 5 C1 5.66 1 6.32 1 7 C0.34 7 -0.32 7 -1 7 C-0.67 7.99 -0.34 8.98 0 10 C-0.66 10 -1.32 10 -2 10 C-1.79375 10.556875 -1.5875 11.11375 -1.375 11.6875 C-0.89304789 14.659538 -1.73434972 16.31979941 -3 19 C-4.1484375 17.484375 -4.1484375 17.484375 -5 15 C-4.33388902 12.27763337 -3.59992701 9.85472924 -2.625 7.25 C-2.25375 6.20392578 -2.25375 6.20392578 -1.875 5.13671875 C-1.26343573 3.41963444 -0.63347995 1.7091204 0 0 Z " fill="#EFEFEF" transform="translate(302,618)"/>
<path d="M0 0 C0 0.66 0 1.32 0 2 C-5.07476794 3.26305335 -9.72796354 4.27036084 -15 4 C-15.33 3.01 -15.66 2.02 -16 1 C-10.62915894 0.31798844 -5.41499441 -0.11521265 0 0 Z " fill="#E4E4E4" transform="translate(712,619)"/>
<path d="M0 0 C1.38978246 2.77956492 0.61356169 4.12046386 -0.25 7.0625 C-0.62898437 8.41021484 -0.62898437 8.41021484 -1.015625 9.78515625 C-1.50289062 10.88150391 -1.50289062 10.88150391 -2 12 C-2.99 12.33 -3.98 12.66 -5 13 C-5.66 11.68 -6.32 10.36 -7 9 C-4.69 6.03 -2.38 3.06 0 0 Z " fill="#F0F0F0" transform="translate(519,232)"/>
<path d="M0 0 C0.99 0.33 1.98 0.66 3 1 C3 4.63 3 8.26 3 12 C2.01 12 1.02 12 0 12 C-1.28571429 3.42857143 -1.28571429 3.42857143 0 0 Z " fill="#F2F2F2" transform="translate(662,578)"/>
<path d="M0 0 C0.66 0 1.32 0 2 0 C2 0.66 2 1.32 2 2 C1.34 2 0.68 2 0 2 C0.20238281 2.55300781 0.40476562 3.10601562 0.61328125 3.67578125 C1.1179113 6.70865883 0.36563647 8.36913114 -0.8125 11.1875 C-1.16957031 12.06792969 -1.52664063 12.94835937 -1.89453125 13.85546875 C-3 16 -3 16 -5 17 C-4.35841048 14.35307023 -3.71195217 11.70750071 -3.0625 9.0625 C-2.88009766 8.30775391 -2.69769531 7.55300781 -2.50976562 6.77539062 C-1.11328125 1.11328125 -1.11328125 1.11328125 0 0 Z " fill="#EFEFEF" transform="translate(545,234)"/>
<path d="M0 0 C1.57529969 2.95197464 2.66804755 5.85815922 3.625 9.0625 C3.88539063 9.91972656 4.14578125 10.77695312 4.4140625 11.66015625 C5 14 5 14 5 17 C1.98401393 15.49200696 1.86260957 13.32266466 0.8125 10.1875 C0.44769531 9.12917969 0.08289063 8.07085937 -0.29296875 6.98046875 C-0.98036862 4.08275549 -1.03931179 2.73398578 0 0 Z " fill="#EEEEEE" transform="translate(915,347)"/>
<path d="M0 0 C-1 2 -1 2 -3.3984375 2.88671875 C-4.87183594 3.28310547 -4.87183594 3.28310547 -6.375 3.6875 C-7.35210938 3.95949219 -8.32921875 4.23148438 -9.3359375 4.51171875 C-12 5 -12 5 -15 4 C-5.4375 -1.8125 -5.4375 -1.8125 0 0 Z " fill="#F1F2F2" transform="translate(732,250)"/>
<path d="M0 0 C0.66 0 1.32 0 2 0 C2.8125 2 2.8125 2 3 5 C1.58832428 7.84968868 -0.14884761 10.41863524 -2 13 C-3.18414294 9.44757118 -2.69535532 8.30169438 -1.5625 4.8125 C-1.27503906 3.91144531 -0.98757813 3.01039063 -0.69140625 2.08203125 C-0.46324219 1.39496094 -0.23507812 0.70789063 0 0 Z " fill="#ECEDEC" transform="translate(509,373)"/>
<path d="M0 0 C2 1 2 1 2.9375 3 C3.8891846 5.34608221 3.8891846 5.34608221 7 6 C7 6.66 7 7.32 7 8 C2.545 7.01 2.545 7.01 -2 6 C-1.34 4.02 -0.68 2.04 0 0 Z " fill="#ECEDED" transform="translate(616,470)"/>
<path d="M0 0 C0.66 0.33 1.32 0.66 2 1 C2 1.99 2 2.98 2 4 C1.34 4 0.68 4 0 4 C0.33 4.99 0.66 5.98 1 7 C-0.09796221 10.75137087 -0.65901324 11.77267549 -4 14 C-3.52188823 12.22888156 -3.0424722 10.45811517 -2.5625 8.6875 C-2.29566406 7.70136719 -2.02882813 6.71523438 -1.75390625 5.69921875 C-1.21920575 3.78482474 -0.62855462 1.88566385 0 0 Z " fill="#EDEDED" transform="translate(521,335)"/>
<path d="M0 0 C0.66 0 1.32 0 2 0 C2.18166131 3.99654885 2.02758236 6.54118304 0 10 C-0.33 10.99 -0.66 11.98 -1 13 C-1.66 13 -2.32 13 -3 13 C-2.01 8.71 -1.02 4.42 0 0 Z " fill="#EDEDED" transform="translate(549,217)"/>
<path d="M0 0 C2.9453125 2.71875 2.9453125 2.71875 3.4375 5.25 C2.81940525 9.13516701 1.0870247 11.67380439 -1 15 C-2.50416548 11.99166904 -1.60839737 9.65038422 -1.0625 6.375 C-0.86785156 5.18648438 -0.67320312 3.99796875 -0.47265625 2.7734375 C-0.31667969 1.85820312 -0.16070312 0.94296875 0 0 Z " fill="#E0E0E0" transform="translate(434,472)"/>
<path d="M0 0 C0.598125 0.350625 1.19625 0.70125 1.8125 1.0625 C1.8125 1.7225 1.8125 2.3825 1.8125 3.0625 C2.4725 3.3925 3.1325 3.7225 3.8125 4.0625 C0.8425 3.7325 -2.1275 3.4025 -5.1875 3.0625 C-5.1875 2.0725 -5.1875 1.0825 -5.1875 0.0625 C-2.1875 -0.9375 -2.1875 -0.9375 0 0 Z " fill="#F2F2F2" transform="translate(652.1875,516.9375)"/>
<path d="M0 0 C0.66 0.33 1.32 0.66 2 1 C1.54177532 4.46941546 1.10868317 7.67395049 0 11 C-0.99 11 -1.98 11 -3 11 C-3 10.34 -3 9.68 -3 9 C-2.34 9 -1.68 9 -1 9 C-0.67 6.03 -0.34 3.06 0 0 Z " fill="#F0F0F0" transform="translate(853,528)"/>
<path d="M0 0 C1.18414294 3.55242882 0.69535532 4.69830562 -0.4375 8.1875 C-0.72496094 9.08855469 -1.01242187 9.98960937 -1.30859375 10.91796875 C-1.53675781 11.60503906 -1.76492188 12.29210937 -2 13 C-2.33 13 -2.66 13 -3 13 C-3.4726477 4.80743982 -3.4726477 4.80743982 -1.5 1.4375 C-0.7575 0.7259375 -0.7575 0.7259375 0 0 Z " fill="#F0F0F0" transform="translate(490,348)"/>
<path d="M0 0 C2.97 0 5.94 0 9 0 C8.67 1.65 8.34 3.3 8 5 C7.01 4.67 6.02 4.34 5 4 C4.67 3.34 4.34 2.68 4 2 C2.68 1.34 1.36 0.68 0 0 Z " fill="#F0F1F1" transform="translate(801,663)"/>
<path d="M0 0 C3.63 1.98 7.26 3.96 11 6 C10.67 6.66 10.34 7.32 10 8 C5.60316512 6.80086322 2.90159066 5.5711885 0 2 C0 1.34 0 0.68 0 0 Z " fill="#EEEEEE" transform="translate(650,614)"/>
<path d="M0 0 C0.66 0.33 1.32 0.66 2 1 C1.01 2.98 0.02 4.96 -1 7 C-1.66 6.34 -2.32 5.68 -3 5 C-2.01 3.35 -1.02 1.7 0 0 Z M-10 11 C-9.01 11.495 -9.01 11.495 -8 12 C-8.66 12.66 -9.32 13.32 -10 14 C-10 13.01 -10 12.02 -10 11 Z " fill="#ECECEC" transform="translate(380,605)"/>
<path d="M0 0 C0.66 0 1.32 0 2 0 C2.33 3.3 2.66 6.6 3 10 C2.01 9.34 1.02 8.68 0 8 C-0.40843923 5.28796348 -0.13336867 2.7562858 0 0 Z " fill="#E9E9E9" transform="translate(895,375)"/>
<path d="M0 0 C0.66 0.33 1.32 0.66 2 1 C1.34 4.3 0.68 7.6 0 11 C-0.99 11.33 -1.98 11.66 -3 12 C-2.01 8.04 -1.02 4.08 0 0 Z " fill="#F0F0EF" transform="translate(485,360)"/>
<path d="M0 0 C2.31 0 4.62 0 7 0 C6.67 1.32 6.34 2.64 6 4 C4.02 4 2.04 4 0 4 C0 2.68 0 1.36 0 0 Z " fill="#EBEBEB" transform="translate(714,590)"/>
<path d="M0 0 C2.29633824 3.44450737 2.54016485 5.93812283 3 10 C2.01 10.495 2.01 10.495 1 11 C0.63743142 9.5437328 0.28520207 8.08488815 -0.0625 6.625 C-0.35833984 5.40683594 -0.35833984 5.40683594 -0.66015625 4.1640625 C-1 2 -1 2 0 0 Z " fill="#EEEEEE" transform="translate(171,533)"/>
<path d="M0 0 C6.625 -0.25 6.625 -0.25 10 2 C6.7 2.66 3.4 3.32 0 4 C0 2.68 0 1.36 0 0 Z " fill="#E9E9E9" transform="translate(217,663)"/>
<path d="M0 0 C-0.99 0.33 -1.98 0.66 -3 1 C-3 1.66 -3 2.32 -3 3 C-4.65 3.33 -6.3 3.66 -8 4 C-8.33 3.01 -8.66 2.02 -9 1 C-2.25 -1.125 -2.25 -1.125 0 0 Z " fill="#ECECEC" transform="translate(420,499)"/>
<path d="M0 0 C0.66 0.33 1.32 0.66 2 1 C1.34 3.64 0.68 6.28 0 9 C-0.33 9 -0.66 9 -1 9 C-1.33 6.36 -1.66 3.72 -2 1 C-1.34 0.67 -0.68 0.34 0 0 Z " fill="#EFEFEF" transform="translate(661,571)"/>
<path d="M0 0 C0.66 0.99 1.32 1.98 2 3 C0.86695008 6.39914975 -0.12518475 7.05254451 -3 9 C-3.33 8.34 -3.66 7.68 -4 7 C-3.22265625 5.2734375 -3.22265625 5.2734375 -2.0625 3.375 C-1.381875 2.26125 -0.70125 1.1475 0 0 Z " fill="#F1F1F2" transform="translate(629,448)"/>
<path d="M0 0 C0.93065133 2.60582371 1.14917407 3.64198224 0.0625 6.25 C-0.4634375 7.11625 -0.4634375 7.11625 -1 8 C-1.66 8 -2.32 8 -3 8 C-2.74438677 5.6568787 -2.40729228 3.32156597 -2 1 C-1.34 0.67 -0.68 0.34 0 0 Z " fill="#EBEAEA" transform="translate(922,446)"/>
<path d="M0 0 C0.66 0.33 1.32 0.66 2 1 C1.1875 3.9375 1.1875 3.9375 0 7 C-0.99 7.33 -1.98 7.66 -3 8 C-2.25 2.25 -2.25 2.25 0 0 Z " fill="#EDEDED" transform="translate(271,631)"/>
<path d="M0 0 C2.18975773 3.28463659 2.99806563 6.20696275 4 10 C3.34 10 2.68 10 2 10 C-1.07692308 4.58461538 -1.07692308 4.58461538 -0.6875 1.625 C-0.460625 1.08875 -0.23375 0.5525 0 0 Z " fill="#E6E6E6" transform="translate(854,625)"/>
<path d="M0 0 C0.99 0.33 1.98 0.66 3 1 C3.33 2.98 3.66 4.96 4 7 C3.01 6.67 2.02 6.34 1 6 C0.67 4.02 0.34 2.04 0 0 Z " fill="#EEEFEE" transform="translate(128,445)"/>
<path d="M0 0 C1 3 1 3 0.0625 5.1875 C-0.4634375 6.0846875 -0.4634375 6.0846875 -1 7 C-1.99 6.67 -2.98 6.34 -4 6 C-2.68 4.02 -1.36 2.04 0 0 Z " fill="#EFEFEF" transform="translate(590,300)"/>
<path d="M0 0 C0.33 0 0.66 0 1 0 C0.67 2.64 0.34 5.28 0 8 C-0.99 8.33 -1.98 8.66 -3 9 C-2.5020163 5.26512223 -2.12508244 3.18762365 0 0 Z " fill="#E9EAEA" transform="translate(508,267)"/>
<path d="M0 0 C1.98 0 3.96 0 6 0 C6.33 0.66 6.66 1.32 7 2 C4 4 4 4 1.8125 3.625 C1.214375 3.41875 0.61625 3.2125 0 3 C0 2.01 0 1.02 0 0 Z " fill="#F0F0F1" transform="translate(224,246)"/>
<path d="M0 0 C0.66 0.33 1.32 0.66 2 1 C0.8141763 4.37503669 -0.27573689 6.64722731 -3 9 C-3.33 8.34 -3.66 7.68 -4 7 C-3.22265625 5.2734375 -3.22265625 5.2734375 -2.0625 3.375 C-1.381875 2.26125 -0.70125 1.1475 0 0 Z " fill="#EBEBEB" transform="translate(623,458)"/>
</svg>
