<?xml version="1.0" encoding="UTF-8"?>
<svg version="1.1" xmlns="http://www.w3.org/2000/svg" width="1024" height="1024">
<path d="M0 0 C337.92 0 675.84 0 1024 0 C1024 337.92 1024 675.84 1024 1024 C686.08 1024 348.16 1024 0 1024 C0 686.08 0 348.16 0 0 Z " fill="#F7F7F7" transform="translate(0,0)"/>
<path d="M0 0 C1.03898438 0.55171875 2.07796875 1.1034375 3.1484375 1.671875 C38.80925944 21.32744615 65.45904415 56.96463929 76.79785156 95.72753906 C88.93769982 140.24031602 82.900228 184.70400074 60.31005859 224.77099609 C49.11365347 243.82115986 33.66602818 259.91251005 16 273 C15.12794922 273.64654541 15.12794922 273.64654541 14.23828125 274.30615234 C-9.3178068 291.49018624 -39.56886431 303.0170185 -68.92578125 303.203125 C-69.66644333 303.21018463 -70.40710541 303.21724426 -71.17021179 303.22451782 C-101.95131393 303.45132785 -101.95131393 303.45132785 -115 300 C-116.17175781 299.70198486 -116.17175781 299.70198486 -117.3671875 299.39794922 C-141.22752741 293.1959333 -163.51346853 282.47840984 -182 266 C-183.27230469 264.89011719 -183.27230469 264.89011719 -184.5703125 263.7578125 C-187.08069734 261.53915434 -189.54867235 259.28364726 -192 257 C-193.12535156 255.95585938 -193.12535156 255.95585938 -194.2734375 254.890625 C-216.15649956 233.85217235 -230.45769578 204.41484159 -237 175 C-237.15098145 174.3488623 -237.30196289 173.69772461 -237.45751953 173.02685547 C-246.53915956 132.28193542 -237.4837502 88.71549476 -215.52978516 53.65185547 C-208.96552584 43.52915647 -201.41819633 34.61171808 -193 26 C-192.3503125 25.2884375 -191.700625 24.576875 -191.03125 23.84375 C-143.27653452 -27.26217359 -58.94767402 -32.73392282 0 0 Z " fill="#F6F6F6" transform="translate(573,268)"/>
<path d="M0 0 C2.88009811 0.01070668 5.75956919 0.00003973 8.63964844 -0.01269531 C25.66405117 -0.02757829 42.34464909 1.06982678 58.95214844 5.01074219 C60.66180786 5.40652466 60.66180786 5.40652466 62.40600586 5.81030273 C65.78154463 6.60456103 69.14922591 7.42473577 72.51464844 8.26074219 C73.9488916 8.61676514 73.9488916 8.61676514 75.41210938 8.97998047 C95.04420651 13.96730856 113.68296872 21.69017543 131.51464844 31.26074219 C132.10117187 31.57333984 132.68769531 31.8859375 133.29199219 32.20800781 C146.90031809 39.52740805 159.69635136 48.31231393 171.51464844 58.26074219 C172.0320459 58.68935547 172.54944336 59.11796875 173.08251953 59.55957031 C185.77383222 70.08139657 197.36950902 81.22743696 207.51464844 94.26074219 C208.30226563 95.23140625 209.08988281 96.20207031 209.90136719 97.20214844 C246.31706197 142.87897754 267.2401726 207.78516734 261.06152344 266.19042969 C260.74672399 268.77224637 260.36419559 271.32398286 259.95214844 273.89355469 C258.66467623 283.80249257 260.88357719 289.18222728 265.38964844 298.07324219 C265.99174329 299.28754014 266.59272409 300.50239108 267.19262695 301.71777344 C271.28433207 309.97047519 275.5172056 318.15052134 279.86230469 326.27246094 C283.717325 333.48598799 287.43174071 340.7731796 291.17773438 348.04370117 C294.04145949 353.57739198 296.94336028 359.08075825 299.97167969 364.52636719 C300.78886475 365.99722778 300.78886475 365.99722778 301.62255859 367.49780273 C302.63802915 369.31419234 303.66178376 371.12598874 304.69580078 372.93188477 C310.84303154 383.91523872 313.66834682 394.93449475 310.38964844 407.38574219 C306.22190681 419.40658956 299.52607204 426.38039163 288.23828125 432.03320312 C279.65667271 436.14202643 270.12233772 440.26074219 260.51464844 440.26074219 C260.84464844 440.92074219 261.17464844 441.58074219 261.51464844 442.26074219 C262.95487413 452.07950716 263.73096014 461.96443718 263.88964844 471.88574219 C263.91551025 472.68931152 263.94137207 473.49288086 263.96801758 474.32080078 C263.98726028 480.30590259 262.64438989 485.12668001 259.51464844 490.26074219 C257.40917969 492.17871094 257.40917969 492.17871094 255.32714844 493.44824219 C252.42946515 495.74714221 251.61180107 496.77018136 250.88183594 500.45605469 C250.76069549 502.89466466 250.67552289 505.33529337 250.62402344 507.77636719 C250.33290231 517.05065447 246.19961867 523.88035753 241.25683594 531.47558594 C238.95333771 535.15808423 238.374471 537.98744248 238.12011719 542.24121094 C236.58418844 565.29512685 233.19629455 584.90462778 215.51464844 601.26074219 C200.10902491 613.6342893 181.42273133 614.45199922 162.62670898 612.45043945 C159.38313113 612.0907529 156.14227597 611.71003043 152.90136719 611.32714844 C151.15322875 611.12700528 149.40500176 610.92763415 147.6566925 610.72898865 C143.09778873 610.20903465 138.54009124 609.67918985 133.98260498 609.14697266 C129.35527151 608.60820904 124.72693543 608.07821424 120.09863281 607.54785156 C114.08769159 606.85888739 108.07702904 606.16777969 102.06741047 605.4673605 C99.845309 605.21079554 97.6223695 604.96277966 95.39926147 604.71511841 C93.02370663 604.43725402 90.65111145 604.12946341 88.28652954 603.76998901 C86.94695694 603.57773239 86.94695694 603.57773239 85.58032227 603.3815918 C84.48328728 603.2007328 84.48328728 603.2007328 83.36408997 603.01622009 C81.38673762 603.10015502 81.38673762 603.10015502 79.90011597 604.71447754 C77.95095866 608.29671259 77.16400838 611.91692744 76.28149414 615.88012695 C76.07932785 616.75108002 75.87716156 617.62203308 75.66886902 618.51937866 C75.00000968 621.41156451 74.34522301 624.30674846 73.69042969 627.20214844 C73.22148975 629.24270409 72.75168137 631.28306034 72.28105164 633.32322693 C71.03750701 638.72474425 69.80584003 644.12890364 68.57659912 649.53369141 C67.35532698 654.89419988 66.12297131 660.25215548 64.89160156 665.61035156 C63.92824579 669.80751054 62.96551605 674.00481294 62.00292969 678.20214844 C61.6480567 679.74898756 61.6480567 679.74898756 61.28601456 681.32707596 C59.06723191 691.00408554 56.85097312 700.68103777 54.72722721 710.37942219 C54.00938911 713.65598804 53.28332166 716.93070647 52.55684471 720.20536613 C52.07349933 722.40336246 51.60392735 724.60399374 51.13484192 726.80506897 C50.84313999 728.12240346 50.55075922 729.43958789 50.25756836 730.7565918 C50.01536057 731.87682236 49.77315277 732.99705292 49.52360535 734.15122986 C47.98778881 738.88447506 45.58322707 742.27035224 41.95214844 745.63574219 C37.08108369 747.93842734 32.81277962 748.0345378 27.51464844 747.26074219 C22.64985756 744.96102286 19.78103176 742.14218319 17.51464844 737.26074219 C16.67121909 728.75702397 18.14787023 720.81841555 20.11328125 712.58251953 C20.38970963 711.37763382 20.666138 710.17274811 20.95094299 708.93135071 C21.70386144 705.66253423 22.46834805 702.39687651 23.23886585 699.13219404 C24.0477274 695.69426708 24.84266511 692.25311849 25.6395874 688.81240845 C26.97897474 683.03912665 28.32869358 677.26833868 29.68505859 671.49902344 C31.24730149 664.85358077 32.79461638 658.20480223 34.33363652 651.5539459 C35.8221107 645.1225177 37.31969186 638.69324551 38.82186127 632.2650032 C39.45759611 629.5441992 40.09048011 626.82275628 40.72104645 624.10074997 C41.60409175 620.29166035 42.50058876 616.48580454 43.3984375 612.68017578 C43.65522781 611.56613876 43.91201813 610.45210175 44.17658997 609.30430603 C47.57314188 595.03558003 52.30816562 583.91975586 64.98730469 575.70214844 C78.5131446 567.98802954 94.39935455 571.6274879 109.13183594 573.44824219 C111.00211298 573.67323128 112.87248655 573.89741918 114.74295044 574.12084961 C119.63010953 574.70623478 124.51620771 575.30000368 129.40203857 575.8963623 C137.24074748 576.85240006 145.08063325 577.79856999 152.92123795 578.73892212 C155.64645072 579.06746923 158.37095085 579.40150278 161.09542847 579.73608398 C162.77144026 579.9385107 164.44747465 580.14075048 166.12353516 580.34277344 C167.24736855 580.48303452 167.24736855 580.48303452 168.39390564 580.62612915 C178.09789715 581.78259385 188.2261493 581.71106465 196.54589844 575.82324219 C203.72928053 568.20006119 205.0716566 557.37583608 205.57714844 547.38574219 C206.52412561 533.74364527 208.91498117 522.61759209 214.99121094 510.37792969 C216.56320774 507.33580355 216.56320774 507.33580355 217.51464844 504.26074219 C216.85464844 504.59074219 216.19464844 504.92074219 215.51464844 505.26074219 C208.53416875 506.01248615 202.8289496 505.96073517 197.06933594 501.67089844 C192.96696638 497.94990494 191.81517039 493.99188461 191.39355469 488.60058594 C191.64350105 483.77097723 193.73455212 480.31149642 196.85058594 476.72167969 C205.571964 469.15134644 220.66157874 471.03604634 231.51464844 471.26074219 C231.42376953 470.46603516 231.33289063 469.67132812 231.23925781 468.85253906 C226.48947998 426.78655792 226.48947998 426.78655792 231.04833984 420.00512695 C237.30562981 412.56118143 245.93586764 410.82875748 255.07714844 409.13574219 C267.83019173 407.0369761 267.83019173 407.0369761 278.51464844 400.26074219 C278.43106238 392.56322602 275.87663831 387.22278207 272.20214844 380.57324219 C271.66452881 379.57139893 271.12690918 378.56955566 270.57299805 377.53735352 C268.90339451 374.43582714 267.21278273 371.34672704 265.51464844 368.26074219 C265.00901367 367.3400293 264.50337891 366.41931641 263.98242188 365.47070312 C263.49547852 364.58415039 263.00853516 363.69759766 262.50683594 362.78417969 C261.53019751 361.00557555 260.55363489 359.22692977 259.57714844 357.44824219 C259.08706299 356.55814453 258.59697754 355.66804688 258.09204102 354.75097656 C253.59345645 346.52683041 249.40537519 338.15899465 245.24951172 329.75756836 C241.91953328 323.03363155 238.48795528 316.37841677 234.95214844 309.76074219 C227.78160003 296.16916529 225.50230311 287.03604497 227.24023438 271.53735352 C233.34134263 216.75222394 217.81798641 161.8676995 184.13574219 118.17480469 C181.97534526 115.49215529 179.7694846 112.86434797 177.51464844 110.26074219 C176.79792969 109.43316406 176.08121094 108.60558594 175.34277344 107.75292969 C165.57138526 96.69947994 155.33607054 87.03224939 143.51464844 78.26074219 C142.8569043 77.76928711 142.19916016 77.27783203 141.52148438 76.77148438 C87.67552657 36.8046756 21.5117269 27.1526973 -43.81103516 36.52636719 C-86.42832225 43.02942038 -125.70821516 59.42919925 -159.48535156 86.26074219 C-160.0399707 86.69821777 -160.59458984 87.13569336 -161.16601562 87.58642578 C-177.00669035 100.1906785 -190.83802956 114.71752092 -202.48535156 131.26074219 C-202.99936523 131.9890625 -203.51337891 132.71738281 -204.04296875 133.46777344 C-211.62625816 144.31325434 -218.37816356 155.52356956 -224.48535156 167.26074219 C-224.86788086 167.98777344 -225.25041016 168.71480469 -225.64453125 169.46386719 C-242.5305333 201.94027011 -249.9600846 238.09587093 -249.79785156 274.51074219 C-249.79511734 275.79283569 -249.79511734 275.79283569 -249.79232788 277.10083008 C-249.74904874 289.18064332 -249.39256466 300.99119649 -246.97265625 312.86621094 C-246.44903144 315.43921299 -245.98752351 318.01995322 -245.52441406 320.60449219 C-238.57720345 357.39006858 -221.25884772 390.21634477 -204.20166016 423.11181641 C-169.98315945 489.27615231 -164.03753348 545.71229366 -181.87145996 617.77838135 C-182.47304295 620.2109705 -183.06995449 622.64466597 -183.66601562 625.07861328 C-188.50452676 644.77704843 -193.82712959 664.32691168 -199.42285156 683.82324219 C-199.7040686 684.80834778 -199.98528564 685.79345337 -200.27502441 686.80841064 C-201.07652406 689.60837014 -201.88670688 692.40565154 -202.70019531 695.20214844 C-202.93731735 696.03161484 -203.17443939 696.86108124 -203.41874695 697.71568298 C-205.66546415 705.35880575 -208.04595215 710.46544475 -214.48535156 715.26074219 C-218.43637163 717.23625222 -223.34276956 716.95270447 -227.49316406 715.61230469 C-232.14326721 713.25705764 -234.73928153 710.14397199 -236.48535156 705.26074219 C-237.12952605 697.24630564 -235.20070937 690.33824098 -233.04785156 682.65527344 C-232.68485083 681.32780884 -232.32289525 680.00005805 -231.96191406 678.67204285 C-231.00829052 675.17423091 -230.04128618 671.68026219 -229.07110596 668.18701172 C-228.11706639 664.74423811 -227.17444368 661.29835014 -226.23144531 657.85253906 C-225.10791282 653.74998273 -223.98368935 649.64762343 -222.85551453 645.54634094 C-220.42777102 636.71929759 -218.01476116 627.88846752 -215.64289856 619.04622459 C-215.15171822 617.21705774 -214.65753276 615.38869863 -214.16320801 613.56037903 C-197.45262567 551.05437159 -201.08973349 500.72570454 -230.36035156 443.19824219 C-231.20351328 441.52347115 -232.04596179 439.84834086 -232.88769531 438.17285156 C-237.50758269 429.00109915 -242.22363305 419.88308313 -247.04379272 410.81492615 C-264.02432167 378.79881681 -277.02350689 344.36849041 -281.48535156 308.26074219 C-281.58106445 307.51542236 -281.67677734 306.77010254 -281.77539062 306.00219727 C-284.50919048 281.16038338 -284.19561783 253.78484589 -279.48535156 229.26074219 C-279.29199219 228.21853516 -279.09863281 227.17632812 -278.89941406 226.10253906 C-274.21149739 201.46203876 -266.57679409 177.76465962 -255.48535156 155.26074219 C-255.07591309 154.41882324 -254.66647461 153.5769043 -254.24462891 152.70947266 C-236.71759878 116.95272506 -210.47587604 82.26346236 -178.20361328 58.53466797 C-176.45499474 57.23823553 -174.73706353 55.90785501 -173.02050781 54.56933594 C-134.00219328 24.5235196 -85.72556268 8.87707507 -37.48535156 2.26074219 C-36.81719421 2.16718445 -36.14903687 2.07362671 -35.46063232 1.97723389 C-23.62818559 0.35757161 -11.93547922 -0.05254359 0 0 Z " fill="#020202" transform="translate(493.4853515625,123.7392578125)"/>
<path d="M0 0 C1.03898438 0.55171875 2.07796875 1.1034375 3.1484375 1.671875 C38.80925944 21.32744615 65.45904415 56.96463929 76.79785156 95.72753906 C88.93769982 140.24031602 82.900228 184.70400074 60.31005859 224.77099609 C49.11365347 243.82115986 33.66602818 259.91251005 16 273 C15.12794922 273.64654541 15.12794922 273.64654541 14.23828125 274.30615234 C-9.3178068 291.49018624 -39.56886431 303.0170185 -68.92578125 303.203125 C-69.66644333 303.21018463 -70.40710541 303.21724426 -71.17021179 303.22451782 C-101.95131393 303.45132785 -101.95131393 303.45132785 -115 300 C-116.17175781 299.70198486 -116.17175781 299.70198486 -117.3671875 299.39794922 C-141.22752741 293.1959333 -163.51346853 282.47840984 -182 266 C-183.27230469 264.89011719 -183.27230469 264.89011719 -184.5703125 263.7578125 C-187.08069734 261.53915434 -189.54867235 259.28364726 -192 257 C-193.12535156 255.95585938 -193.12535156 255.95585938 -194.2734375 254.890625 C-216.15649956 233.85217235 -230.45769578 204.41484159 -237 175 C-237.15098145 174.3488623 -237.30196289 173.69772461 -237.45751953 173.02685547 C-246.53915956 132.28193542 -237.4837502 88.71549476 -215.52978516 53.65185547 C-208.96552584 43.52915647 -201.41819633 34.61171808 -193 26 C-192.3503125 25.2884375 -191.700625 24.576875 -191.03125 23.84375 C-143.27653452 -27.26217359 -58.94767402 -32.73392282 0 0 Z M-116 16 C-117.25296875 16.350625 -118.5059375 16.70125 -119.796875 17.0625 C-139.33162312 22.89860732 -155.28814556 34.11492746 -170 48 C-170.74894531 48.68449219 -171.49789062 49.36898437 -172.26953125 50.07421875 C-195.97905393 72.53805723 -208.27161493 105.88800038 -209.28344727 138.09863281 C-209.61414551 161.87555838 -203.83579629 185.38666835 -192 206 C-191.65598145 206.60005859 -191.31196289 207.20011719 -190.95751953 207.81835938 C-173.0111977 238.50698804 -143.98484081 259.42065688 -109.85742188 268.57470703 C-105.9309709 269.54096708 -101.98753919 270.334557 -98 271 C-96.41832031 271.27263672 -96.41832031 271.27263672 -94.8046875 271.55078125 C-59.90568598 275.67129991 -25.21844728 265.74331852 2.41845703 244.26171875 C10.69277467 237.66065769 17.57717006 230.39360585 24 222 C24.66644531 221.16082031 25.33289063 220.32164062 26.01953125 219.45703125 C36.77009932 205.44100464 43.10684903 189.85418669 48 173 C48.1973877 172.32469238 48.39477539 171.64938477 48.59814453 170.95361328 C57.23063601 139.2429063 50.05098921 103.67258763 34.16015625 75.59375 C18.04129786 48.22070022 -7.00292635 27.97118655 -37 17.6875 C-37.99326294 17.34199097 -37.99326294 17.34199097 -39.0065918 16.98950195 C-52.44954166 12.63942021 -65.83885762 11.44881324 -79.875 11.5625 C-81.05755875 11.56656357 -81.05755875 11.56656357 -82.26400757 11.57070923 C-93.9768895 11.63170377 -104.78981468 12.37457836 -116 16 Z " fill="#020202" transform="translate(573,268)"/>
<path d="M0 0 C1.31339355 0.00684814 2.62678711 0.01369629 3.97998047 0.02075195 C13.62643117 0.18027148 22.05219191 1.101749 31.125 4.4375 C32.19105469 4.82292969 33.25710938 5.20835937 34.35546875 5.60546875 C47.74893504 10.85081867 64.34566302 18.87882604 71.125 32.4375 C71.67478069 37.4486158 71.68654513 41.33446493 69.375 45.875 C65.58285927 50.19382694 62.69781622 52.19011382 56.875 52.75 C50.28324894 52.20068741 46.11315164 48.43071037 41 44.5625 C26.0685008 33.65336385 7.51168163 29.03827868 -10.87597656 31.73046875 C-24.23628055 34.11189332 -35.4039711 39.80264775 -45.65625 48.73828125 C-49.78864655 51.90305678 -53.66405075 52.90736853 -58.88671875 52.75 C-63.51559759 52.02247484 -66.22521315 49.15568547 -69.25 45.8125 C-71.45505939 41.23276127 -71.66828044 37.43434893 -70.875 32.4375 C-69.3125 29.25 -69.3125 29.25 -66.875 26.4375 C-66.45863281 25.92058594 -66.04226563 25.40367187 -65.61328125 24.87109375 C-49.6990405 6.86836996 -22.99140325 -0.18519947 0 0 Z " fill="#020202" transform="translate(494.875,441.5625)"/>
<path d="M0 0 C4.17332836 2.54643764 7.10916902 5.47227414 9 10 C9.26742554 12.48396301 9.26742554 12.48396301 9.29052734 15.30004883 C9.3096669 16.88738579 9.3096669 16.88738579 9.32919312 18.50679016 C9.33141876 19.64536972 9.33364441 20.78394928 9.3359375 21.95703125 C9.3425943 23.13335617 9.3492511 24.30968109 9.35610962 25.52165222 C9.3662346 28.01059404 9.37092669 30.499563 9.37060547 32.98852539 C9.37497153 36.78773024 9.41127558 40.58576684 9.44921875 44.38476562 C9.45508837 46.80468353 9.45905679 49.22460695 9.4609375 51.64453125 C9.47530853 52.77703812 9.48967957 53.90954498 9.50448608 55.07637024 C9.46675397 61.62344843 8.93461238 65.69281703 5 71 C1.4638321 74.28358448 -1.28176794 75.28038259 -6 75.5 C-10.71823206 75.28038259 -13.4638321 74.28358448 -17 71 C-21.5655893 64.79671391 -21.57288421 59.48249913 -21.49609375 51.93359375 C-21.49754898 50.78133804 -21.49900421 49.62908234 -21.50050354 48.44190979 C-21.49884839 46.01373762 -21.48733037 43.58555454 -21.46655273 41.1574707 C-21.43756891 37.44632327 -21.44595913 33.73660291 -21.45898438 30.02539062 C-21.45274733 27.66145141 -21.44435667 25.29751669 -21.43359375 22.93359375 C-21.43652939 21.82721054 -21.43946503 20.72082733 -21.44248962 19.58091736 C-21.36443664 13.19318402 -21.00162641 8.29084562 -16.5 3.35546875 C-10.90747495 -0.99912758 -6.78988251 -1.84666788 0 0 Z " fill="#020202" transform="translate(541,338)"/>
<path d="M0 0 C5.07826209 2.77867171 8.16314023 5.48942069 10 11 C10.10731343 12.69587483 10.15869639 14.39555838 10.17700195 16.09472656 C10.18983719 17.13300598 10.20267242 18.1712854 10.21589661 19.24102783 C10.22328354 20.3628949 10.23067047 21.48476196 10.23828125 22.640625 C10.246353 23.79616882 10.25442474 24.95171265 10.26274109 26.14227295 C10.27657962 28.59011333 10.2873028 31.03797298 10.29516602 33.48583984 C10.31236831 37.2214027 10.35625705 40.95607821 10.40039062 44.69140625 C10.41051859 47.070306 10.41903437 49.44921326 10.42578125 51.828125 C10.44328934 52.94189514 10.46079742 54.05566528 10.47883606 55.20318604 C10.46070708 61.71526494 9.90480355 65.7174765 6 71 C2.4638321 74.28358448 -0.28176794 75.28038259 -5 75.5 C-9.68440761 75.30276179 -12.41861249 74.14463293 -16 71 C-19.40855198 67.12130292 -20.12348168 63.87847453 -20.17700195 58.79760742 C-20.18983719 57.73607956 -20.20267242 56.6745517 -20.21589661 55.58085632 C-20.22328354 54.43397842 -20.23067047 53.28710052 -20.23828125 52.10546875 C-20.246353 50.92535721 -20.25442474 49.74524567 -20.26274109 48.52937317 C-20.27657914 46.03025786 -20.28730254 43.53112367 -20.29516602 41.03198242 C-20.31238496 37.21301441 -20.35627612 33.39491061 -20.40039062 29.57617188 C-20.41051705 27.14844387 -20.41903331 24.7207085 -20.42578125 22.29296875 C-20.44328934 21.15216354 -20.46079742 20.01135834 -20.47883606 18.83598328 C-20.4617113 12.56699584 -20.25514831 8.73914161 -16 4 C-10.7941146 -0.69799414 -6.83223111 -1.68217811 0 0 Z " fill="#020202" transform="translate(458,338)"/>
<path d="M0 0 C1.0725 0.268125 2.145 0.53625 3.25 0.8125 C2.92 1.4725 2.59 2.1325 2.25 2.8125 C1.486875 2.85375 0.72375 2.895 -0.0625 2.9375 C-3.23146417 3.96925578 -3.4863434 4.53065629 -5 7.375 C-6.86611832 11.53271161 -7.29907238 15.30322377 -7.75 19.8125 C-8.8125 22.3125 -8.8125 22.3125 -9.75 23.8125 C-10.41 23.8125 -11.07 23.8125 -11.75 23.8125 C-11.19042233 20.74516868 -10.59816591 17.68502038 -10 14.625 C-9.84273437 13.76068359 -9.68546875 12.89636719 -9.5234375 12.00585938 C-7.06112481 -0.35305624 -7.06112481 -0.35305624 0 0 Z " fill="#E8E8E8" transform="translate(578.75,726.1875)"/>
<path d="M0 0 C0 3 0 3 0 3 Z M-3 4 C-2.34 4.66 -1.68 5.32 -1 6 C-2.3959888 7.3959888 -3.81471152 8.76944977 -5.25 10.125 C-8.50678027 13.52981573 -11.24576927 17.1857217 -14 21 C-15.32 20.67 -16.64 20.34 -18 20 C-17.25234375 19.26394531 -16.5046875 18.52789063 -15.734375 17.76953125 C-14.73944821 16.78399056 -13.74466412 15.79830579 -12.75 14.8125 C-12.25886719 14.32974609 -11.76773438 13.84699219 -11.26171875 13.34960938 C-8.27813023 10.38591145 -5.56677663 7.342921 -3 4 Z M-20 21 C-19.34 21.33 -18.68 21.66 -18 22 C-18.99 22.99 -19.98 23.98 -21 25 C-21 22 -21 22 -20 21 Z " fill="#F1F1F1" transform="translate(621,509)"/>
<path d="M0 0 C0.66 0 1.32 0 2 0 C2.27368421 8.21052632 2.27368421 8.21052632 0 12 C-0.68960962 13.99220557 -1.36079057 15.99105606 -2 18 C-2.66 18 -3.32 18 -4 18 C-2.68 12.06 -1.36 6.12 0 0 Z " fill="#EBEBEC" transform="translate(309,748)"/>
<path d="M0 0 C0.66 0 1.32 0 2 0 C2.33 1.65 2.66 3.3 3 5 C0.51979503 4.88658509 -1.95844969 4.75985314 -4.4375 4.625 C-5.14455078 4.5940625 -5.85160156 4.563125 -6.58007812 4.53125 C-8.39239188 4.42719371 -10.19817988 4.22080108 -12 4 C-12.33 3.34 -12.66 2.68 -13 2 C-8.71 2 -4.42 2 0 2 C0 1.34 0 0.68 0 0 Z " fill="#E5E5E6" transform="translate(628,696)"/>
<path d="M0 0 C6.81598387 -0.33278764 11.92122066 -0.24201565 18 3 C18 3.33 18 3.66 18 4 C15.56077639 3.91299202 13.12521586 3.80613998 10.6875 3.6875 C9.99720703 3.66494141 9.30691406 3.64238281 8.59570312 3.61914062 C3.44325817 3.3453392 3.44325817 3.3453392 1.01953125 1.45703125 C0.68308594 0.97621094 0.34664062 0.49539063 0 0 Z " fill="#EEEEEF" transform="translate(597,695)"/>
<path d="M0 0 C0.99 0 1.98 0 3 0 C3.50806447 1.72681437 4.00610467 3.45657979 4.5 5.1875 C4.7784375 6.15042969 5.056875 7.11335937 5.34375 8.10546875 C5.96677608 10.85345876 6.12302812 13.19598416 6 16 C2.73262697 12.73262697 2.04327104 9.16831802 1.875 4.625 C1.91625 3.75875 1.9575 2.8925 2 2 C1.34 2 0.68 2 0 2 C0 1.34 0 0.68 0 0 Z " fill="#ECECEC" transform="translate(283,619)"/>
<path d="M0 0 C1.50560497 2.85410334 2.63216796 5.68124642 3.625 8.75 C3.88539063 9.54921875 4.14578125 10.3484375 4.4140625 11.171875 C4.60742188 11.77515625 4.80078125 12.3784375 5 13 C4.01 13 3.02 13 2 13 C1.47044766 11.21089097 0.9516063 9.41860852 0.4375 7.625 C0.14746094 6.62726562 -0.14257812 5.62953125 -0.44140625 4.6015625 C-1 2 -1 2 0 0 Z " fill="#EDEDED" transform="translate(311,590)"/>
<path d="M0 0 C3.21852831 0.63065757 5.50801069 1.78020695 8.25 3.5625 C8.95640625 4.01753906 9.6628125 4.47257813 10.390625 4.94140625 C11.18726563 5.46541016 11.18726563 5.46541016 12 6 C9.69274206 6.7945524 8.4491564 7.15994803 6.11328125 6.328125 C5.51902344 5.97234375 4.92476562 5.6165625 4.3125 5.25 C3.71050781 4.90453125 3.10851562 4.5590625 2.48828125 4.203125 C1 3 1 3 0 0 Z " fill="#EEEEEE" transform="translate(617,189)"/>
<path d="M0 0 C0.99 0.33 1.98 0.66 3 1 C3.33 4.63 3.66 8.26 4 12 C3.01 11.67 2.02 11.34 1 11 C0.67 7.37 0.34 3.74 0 0 Z " fill="#E5E5E5" transform="translate(211,438)"/>
<path d="M0 0 C0.99 0.33 1.98 0.66 3 1 C3.33 1.99 3.66 2.98 4 4 C4.66 4.66 5.32 5.32 6 6 C6.39764263 7.98821313 6.73775349 9.98944339 7 12 C6.34 12 5.68 12 5 12 C4.16180842 10.37750059 3.3295884 8.75191503 2.5 7.125 C2.0359375 6.22007812 1.571875 5.31515625 1.09375 4.3828125 C0 2 0 2 0 0 Z " fill="#ECEBEC" transform="translate(759,422)"/>
<path d="M0 0 C0.66 0.33 1.32 0.66 2 1 C1.979375 1.886875 1.95875 2.77375 1.9375 3.6875 C1.99286219 6.62169631 2.3305734 9.15493696 3 12 C1 11 1 11 -1 9 C-1.43221915 6.20460862 -1.23050372 3.85824617 -1 1 C-0.67 0.67 -0.34 0.34 0 0 Z " fill="#E7E7E7" transform="translate(753,400)"/>
<path d="M0 0 C0.66 0.33 1.32 0.66 2 1 C1.01 1.33 0.02 1.66 -1 2 C-1.73323796 4.01508358 -1.73323796 4.01508358 -2 6 C-2.33 5.34 -2.66 4.68 -3 4 C-4.32 4.33 -5.64 4.66 -7 5 C-7 5.66 -7 6.32 -7 7 C-8.32 7 -9.64 7 -11 7 C-11 6.34 -11 5.68 -11 5 C-9.21289414 4.13633178 -7.4201535 3.28431406 -5.625 2.4375 C-4.62726562 1.96183594 -3.62953125 1.48617187 -2.6015625 0.99609375 C-1.74304688 0.66738281 -0.88453125 0.33867188 0 0 Z " fill="#E6E6E7" transform="translate(785,553)"/>
<path d="M0 0 C1.9375 1.0625 1.9375 1.0625 4 3 C4.875 6.5625 4.875 6.5625 5 10 C4.34 10.66 3.68 11.32 3 12 C2.49440092 10.56445975 1.9957251 9.1264798 1.5 7.6875 C1.2215625 6.88699219 0.943125 6.08648437 0.65625 5.26171875 C0 3 0 3 0 0 Z " fill="#EAEAEA" transform="translate(740,288)"/>
<path d="M0 0 C0.66 0.33 1.32 0.66 2 1 C0.35 3.64 -1.3 6.28 -3 9 C-3.66 8.34 -4.32 7.68 -5 7 C-4.360625 6.21625 -3.72125 5.4325 -3.0625 4.625 C-1.01857687 2.20460719 -1.01857687 2.20460719 0 0 Z M-7 8 C-6.34 8.33 -5.68 8.66 -5 9 C-6.98 9.99 -6.98 9.99 -9 11 C-9.33 10.34 -9.66 9.68 -10 9 C-9.01 8.67 -8.02 8.34 -7 8 Z " fill="#EAEAEB" transform="translate(565,484)"/>
<path d="M0 0 C-0.99 1.485 -0.99 1.485 -2 3 C-6.29 2.67 -10.58 2.34 -15 2 C-15 1.67 -15 1.34 -15 1 C-9.91913204 0.15318867 -5.15171623 -0.09038099 0 0 Z " fill="#EFEFEF" transform="translate(479,246)"/>
<path d="M0 0 C0.66 0 1.32 0 2 0 C2.75 2.125 2.75 2.125 3 5 C1.0625 8.3125 1.0625 8.3125 -1 11 C-2.60080151 6.99799622 -1.29279692 3.95443764 0 0 Z " fill="#EDEDED" transform="translate(294,804)"/>
<path d="M0 0 C0.66 0.33 1.32 0.66 2 1 C1.5206753 5.31392226 0.2542015 7.16569547 -3 10 C-2.69201674 8.51988629 -2.378482 7.04092675 -2.0625 5.5625 C-1.88847656 4.73878906 -1.71445312 3.91507813 -1.53515625 3.06640625 C-1 1 -1 1 0 0 Z " fill="#EAEBEB" transform="translate(302,778)"/>
<path d="M0 0 C-0.33 0.99 -0.66 1.98 -1 3 C-7.15234375 2.4140625 -7.15234375 2.4140625 -9 2 C-9.33 1.34 -9.66 0.68 -10 0 C-6.7169902 -1.6415049 -3.57454967 -0.51888624 0 0 Z " fill="#E3E3E3" transform="translate(552,126)"/>
<path d="M0 0 C0.99 0 1.98 0 3 0 C2.43454163 3.95820859 1.19097652 6.6659053 -1 10 C-2.27351308 7.45297384 -1.80191925 6.5717055 -1.0625 3.875 C-0.86785156 3.15054688 -0.67320312 2.42609375 -0.47265625 1.6796875 C-0.31667969 1.12539063 -0.16070313 0.57109375 0 0 Z " fill="#E9E9E9" transform="translate(548,831)"/>
<path d="M0 0 C0.66 0.33 1.32 0.66 2 1 C1.01 4.3 0.02 7.6 -1 11 C-1.66 11 -2.32 11 -3 11 C-2.69217504 9.35328588 -2.37860766 7.70764424 -2.0625 6.0625 C-1.88847656 5.14597656 -1.71445312 4.22945312 -1.53515625 3.28515625 C-1 1 -1 1 0 0 Z " fill="#E4E4E4" transform="translate(554,808)"/>
<path d="M0 0 C0.99 0.33 1.98 0.66 3 1 C3 3.64 3 6.28 3 9 C2.34 8.67 1.68 8.34 1 8 C0.40644386 5.35139573 0.25790731 2.70802678 0 0 Z " fill="#EBEAEA" transform="translate(720,565)"/>
<path d="M0 0 C0.66 0.33 1.32 0.66 2 1 C1.67 4.3 1.34 7.6 1 11 C-1 9 -1 9 -1.1875 6.0625 C-1 3 -1 3 0 0 Z " fill="#EDEDED" transform="translate(215,337)"/>
<path d="M0 0 C2 3 2 3 2 7 C1.34 7 0.68 7 0 7 C-0.33 8.65 -0.66 10.3 -1 12 C-2.09898702 8.70303895 -1.87124444 7.59505097 -1.0625 4.3125 C-0.86785156 3.50425781 -0.67320312 2.69601562 -0.47265625 1.86328125 C-0.31667969 1.24839844 -0.16070313 0.63351562 0 0 Z " fill="#DFDFDF" transform="translate(560,778)"/>
<path d="M0 0 C0.99 0.33 1.98 0.66 3 1 C4.22393475 3.95784231 3.96516243 5.99727245 3 9 C0.23776722 6.23776722 0.42143709 3.79293383 0 0 Z " fill="#EEEEEE" transform="translate(319,622)"/>
<path d="M0 0 C3.93673644 1.31224548 6.22719294 2.91910327 9 6 C6.1875 5.8125 6.1875 5.8125 3 5 C1.125 2.4375 1.125 2.4375 0 0 Z " fill="#F0F0F0" transform="translate(396,539)"/>
<path d="M0 0 C0.66 0 1.32 0 2 0 C3.2890625 1.75 3.2890625 1.75 4.625 4 C5.07101562 4.7425 5.51703125 5.485 5.9765625 6.25 C6.31429687 6.8275 6.65203125 7.405 7 8 C4.1630159 6.63426179 1.99277544 5.49096931 0 3 C0 2.01 0 1.02 0 0 Z " fill="#EBECEC" transform="translate(677,242)"/>
<path d="M0 0 C-0.33 0.66 -0.66 1.32 -1 2 C-3.875 2.125 -3.875 2.125 -7 2 C-7.66 1.34 -8.32 0.68 -9 0 C-5.62182575 -0.84454356 -3.32534757 -1.10844919 0 0 Z " fill="#E0E1E0" transform="translate(473,282)"/>
<path d="M0 0 C0.99 0.33 1.98 0.66 3 1 C4.6875 4.5625 4.6875 4.5625 6 8 C5.01 7.67 4.02 7.34 3 7 C3 6.34 3 5.68 3 5 C2.34 5 1.68 5 1 5 C0.67 3.35 0.34 1.7 0 0 Z " fill="#ECEDEC" transform="translate(693,267)"/>
<path d="M0 0 C1.10844919 3.32534757 0.84454356 5.62182575 0 9 C-1.76462683 5.91190305 -2 4.76687864 -2 1 C-1.34 0.67 -0.68 0.34 0 0 Z " fill="#EFEFEF" transform="translate(287,699)"/>
<path d="M0 0 C0.66 0.33 1.32 0.66 2 1 C2 3.97 2 6.94 2 10 C0.4375 8.375 0.4375 8.375 -1 6 C-0.6875 2.75 -0.6875 2.75 0 0 Z " fill="#ECECEB" transform="translate(656,392)"/>
<path d="M0 0 C3.40424844 1.13474948 4.21653709 1.96811304 6 5 C5.67 5.99 5.34 6.98 5 8 C0 2.25 0 2.25 0 0 Z " fill="#E9E9E9" transform="translate(593,326)"/>
<path d="M0 0 C2.64 0.66 5.28 1.32 8 2 C8 2.66 8 3.32 8 4 C5.36 3.67 2.72 3.34 0 3 C0 2.01 0 1.02 0 0 Z " fill="#EDEEEE" transform="translate(532,285)"/>
</svg>
